<mxfile host="app.diagrams.net" agent="Mozilla/5.0 (Windows NT 10.0; Win64; x64) AppleWebKit/537.36 (KHTML, like Gecko) Chrome/132.0.0.0 Safari/537.36 OPR/117.0.0.0" version="26.1.3" pages="2">
  <diagram name="UseCase" id="RwLFHQfHLlchonHco4zS">
    <mxGraphModel grid="1" page="1" gridSize="10" guides="1" tooltips="1" connect="1" arrows="1" fold="1" pageScale="1" pageWidth="1100" pageHeight="850" math="0" shadow="0">
      <root>
        <mxCell id="0" />
        <mxCell id="1" parent="0" />
        <mxCell id="BDvYHgdxMdl73DATvYiS-1" value="Пользователь" style="shape=umlActor;html=1;verticalLabelPosition=bottom;verticalAlign=top;align=center;labelBackgroundColor=none;" vertex="1" parent="1">
          <mxGeometry x="50" y="760" width="30" height="60" as="geometry" />
        </mxCell>
        <mxCell id="BDvYHgdxMdl73DATvYiS-25" value="Выбрать источник&amp;nbsp;&lt;div&gt;ввода&lt;/div&gt;" style="ellipse;whiteSpace=wrap;html=1;labelBackgroundColor=none;" vertex="1" parent="1">
          <mxGeometry x="900" y="230" width="160" height="80" as="geometry" />
        </mxCell>
        <mxCell id="BDvYHgdxMdl73DATvYiS-28" value="Работать с командой&amp;nbsp;&lt;b&gt;cat&lt;/b&gt;" style="ellipse;whiteSpace=wrap;html=1;labelBackgroundColor=none;fillStyle=auto;fillColor=#DFEFFE;strokeColor=#6c8ebf;" vertex="1" parent="1">
          <mxGeometry x="395" y="285" width="140" height="70" as="geometry" />
        </mxCell>
        <mxCell id="BDvYHgdxMdl73DATvYiS-32" value="&amp;lt;&amp;lt;include&amp;gt;&amp;gt;" style="edgeStyle=none;html=1;endArrow=open;verticalAlign=bottom;dashed=1;labelBackgroundColor=none;rounded=0;fontColor=default;" edge="1" parent="1" source="BDvYHgdxMdl73DATvYiS-28" target="BDvYHgdxMdl73DATvYiS-25">
          <mxGeometry width="160" relative="1" as="geometry">
            <mxPoint x="430" y="265" as="sourcePoint" />
            <mxPoint x="540" y="265" as="targetPoint" />
          </mxGeometry>
        </mxCell>
        <mxCell id="BDvYHgdxMdl73DATvYiS-34" value="" style="edgeStyle=none;html=1;endArrow=none;verticalAlign=bottom;rounded=0;labelBackgroundColor=none;fontColor=default;" edge="1" parent="1" source="BDvYHgdxMdl73DATvYiS-1" target="BDvYHgdxMdl73DATvYiS-28">
          <mxGeometry width="160" relative="1" as="geometry">
            <mxPoint x="370" y="360" as="sourcePoint" />
            <mxPoint x="530" y="360" as="targetPoint" />
          </mxGeometry>
        </mxCell>
        <mxCell id="BDvYHgdxMdl73DATvYiS-35" value="Работать с&amp;nbsp;&lt;div&gt;командой &lt;b&gt;echo&lt;/b&gt;&lt;/div&gt;" style="ellipse;whiteSpace=wrap;html=1;labelBackgroundColor=none;fillStyle=auto;fillColor=#DFEFFE;strokeColor=#6c8ebf;" vertex="1" parent="1">
          <mxGeometry x="395" y="460" width="140" height="70" as="geometry" />
        </mxCell>
        <mxCell id="BDvYHgdxMdl73DATvYiS-38" value="Ввести строку" style="ellipse;whiteSpace=wrap;html=1;labelBackgroundColor=none;" vertex="1" parent="1">
          <mxGeometry x="880" y="470" width="140" height="70" as="geometry" />
        </mxCell>
        <mxCell id="BDvYHgdxMdl73DATvYiS-39" value="&amp;lt;&amp;lt;include&amp;gt;&amp;gt;" style="edgeStyle=none;html=1;endArrow=open;verticalAlign=bottom;dashed=1;labelBackgroundColor=none;rounded=0;fontColor=default;" edge="1" parent="1" source="BDvYHgdxMdl73DATvYiS-35" target="BDvYHgdxMdl73DATvYiS-38">
          <mxGeometry width="160" relative="1" as="geometry">
            <mxPoint x="468" y="738" as="sourcePoint" />
            <mxPoint x="754" y="500" as="targetPoint" />
          </mxGeometry>
        </mxCell>
        <mxCell id="BDvYHgdxMdl73DATvYiS-40" value="Работать с &lt;b&gt;переменными&lt;/b&gt;" style="ellipse;whiteSpace=wrap;html=1;labelBackgroundColor=none;" vertex="1" parent="1">
          <mxGeometry x="970" y="850" width="140" height="70" as="geometry" />
        </mxCell>
        <mxCell id="BDvYHgdxMdl73DATvYiS-41" value="" style="edgeStyle=none;html=1;endArrow=none;verticalAlign=bottom;rounded=0;labelBackgroundColor=none;fontColor=default;" edge="1" parent="1" source="BDvYHgdxMdl73DATvYiS-1" target="BDvYHgdxMdl73DATvYiS-35">
          <mxGeometry width="160" relative="1" as="geometry">
            <mxPoint x="120" y="422" as="sourcePoint" />
            <mxPoint x="242" y="356" as="targetPoint" />
          </mxGeometry>
        </mxCell>
        <mxCell id="BDvYHgdxMdl73DATvYiS-42" value="Работать с&amp;nbsp;&lt;div&gt;командой&amp;nbsp;&lt;b style=&quot;color: light-dark(rgb(0, 0, 0), rgb(255, 255, 255));&quot;&gt;wc&lt;/b&gt;&lt;/div&gt;" style="ellipse;whiteSpace=wrap;html=1;labelBackgroundColor=none;fillStyle=auto;fillColor=#DFEFFE;strokeColor=#6c8ebf;" vertex="1" parent="1">
          <mxGeometry x="395" y="680" width="140" height="70" as="geometry" />
        </mxCell>
        <mxCell id="BDvYHgdxMdl73DATvYiS-45" value="Выбрать источник&amp;nbsp;&lt;div&gt;данных&lt;/div&gt;" style="ellipse;whiteSpace=wrap;html=1;labelBackgroundColor=none;" vertex="1" parent="1">
          <mxGeometry x="860" y="690" width="140" height="80" as="geometry" />
        </mxCell>
        <mxCell id="BDvYHgdxMdl73DATvYiS-46" value="&amp;lt;&amp;lt;include&amp;gt;&amp;gt;" style="edgeStyle=none;html=1;endArrow=open;verticalAlign=bottom;dashed=1;labelBackgroundColor=none;rounded=0;fontColor=default;" edge="1" parent="1" source="BDvYHgdxMdl73DATvYiS-42" target="BDvYHgdxMdl73DATvYiS-45">
          <mxGeometry width="160" relative="1" as="geometry">
            <mxPoint x="461.5" y="929" as="sourcePoint" />
            <mxPoint x="688.5" y="905" as="targetPoint" />
          </mxGeometry>
        </mxCell>
        <mxCell id="BDvYHgdxMdl73DATvYiS-47" value="" style="edgeStyle=none;html=1;endArrow=none;verticalAlign=bottom;rounded=0;labelBackgroundColor=none;fontColor=default;" edge="1" parent="1" source="BDvYHgdxMdl73DATvYiS-1" target="BDvYHgdxMdl73DATvYiS-42">
          <mxGeometry width="160" relative="1" as="geometry">
            <mxPoint x="120" y="439" as="sourcePoint" />
            <mxPoint x="245" y="513" as="targetPoint" />
          </mxGeometry>
        </mxCell>
        <mxCell id="BDvYHgdxMdl73DATvYiS-48" value="Работать с &lt;b&gt;пайпами&lt;/b&gt;" style="ellipse;whiteSpace=wrap;html=1;labelBackgroundColor=none;" vertex="1" parent="1">
          <mxGeometry x="230" y="1060" width="140" height="70" as="geometry" />
        </mxCell>
        <mxCell id="BDvYHgdxMdl73DATvYiS-49" value="Работать с&amp;nbsp;&lt;div&gt;командой &lt;b&gt;pwd&lt;/b&gt;&lt;/div&gt;" style="ellipse;whiteSpace=wrap;html=1;labelBackgroundColor=none;fillStyle=auto;fillColor=#DFEFFE;strokeColor=#6c8ebf;" vertex="1" parent="1">
          <mxGeometry x="395" y="860" width="140" height="70" as="geometry" />
        </mxCell>
        <mxCell id="BDvYHgdxMdl73DATvYiS-52" value="" style="edgeStyle=none;html=1;endArrow=none;verticalAlign=bottom;rounded=0;labelBackgroundColor=none;fontColor=default;" edge="1" parent="1" source="BDvYHgdxMdl73DATvYiS-1" target="BDvYHgdxMdl73DATvYiS-49">
          <mxGeometry width="160" relative="1" as="geometry">
            <mxPoint x="120" y="450" as="sourcePoint" />
            <mxPoint x="265" y="642" as="targetPoint" />
          </mxGeometry>
        </mxCell>
        <mxCell id="BDvYHgdxMdl73DATvYiS-57" value="&lt;div&gt;Вызвать команду&amp;nbsp;&lt;b&gt;exit&lt;/b&gt;&lt;/div&gt;" style="ellipse;whiteSpace=wrap;html=1;labelBackgroundColor=none;fillStyle=auto;fillColor=#DFEFFE;strokeColor=#6c8ebf;" vertex="1" parent="1">
          <mxGeometry x="395" y="1020" width="140" height="70" as="geometry" />
        </mxCell>
        <mxCell id="BDvYHgdxMdl73DATvYiS-58" value="Добавить код&amp;nbsp;&lt;div&gt;завершения&lt;/div&gt;" style="ellipse;whiteSpace=wrap;html=1;labelBackgroundColor=none;" vertex="1" parent="1">
          <mxGeometry x="610" y="1190" width="150" height="70" as="geometry" />
        </mxCell>
        <mxCell id="BDvYHgdxMdl73DATvYiS-59" value="&amp;lt;&amp;lt;extend&amp;gt;&amp;gt;" style="align=right;html=1;verticalAlign=bottom;rounded=0;labelBackgroundColor=none;endArrow=open;endSize=12;dashed=1;fontColor=default;" edge="1" parent="1" source="BDvYHgdxMdl73DATvYiS-58" target="BDvYHgdxMdl73DATvYiS-57">
          <mxGeometry relative="1" as="geometry">
            <mxPoint x="49" y="859" as="targetPoint" />
            <mxPoint x="50" y="1274" as="sourcePoint" />
          </mxGeometry>
        </mxCell>
        <mxCell id="BDvYHgdxMdl73DATvYiS-60" value="" style="edgeStyle=none;html=1;endArrow=none;verticalAlign=bottom;rounded=0;labelBackgroundColor=none;fontColor=default;" edge="1" parent="1" source="BDvYHgdxMdl73DATvYiS-1" target="BDvYHgdxMdl73DATvYiS-57">
          <mxGeometry width="160" relative="1" as="geometry">
            <mxPoint x="118" y="460" as="sourcePoint" />
            <mxPoint x="265" y="791" as="targetPoint" />
          </mxGeometry>
        </mxCell>
        <mxCell id="BDvYHgdxMdl73DATvYiS-61" value="BASH" style="shape=umlFrame;whiteSpace=wrap;html=1;pointerEvents=0;labelBackgroundColor=none;" vertex="1" parent="1">
          <mxGeometry x="170" y="50" width="1320" height="1250" as="geometry" />
        </mxCell>
        <mxCell id="BDvYHgdxMdl73DATvYiS-64" value="Посмотреть список&amp;nbsp;&lt;div&gt;всех переменных&lt;div&gt;(команда set)&lt;/div&gt;&lt;/div&gt;" style="ellipse;whiteSpace=wrap;html=1;labelBackgroundColor=none;" vertex="1" parent="1">
          <mxGeometry x="1290" y="970" width="140" height="70" as="geometry" />
        </mxCell>
        <mxCell id="BDvYHgdxMdl73DATvYiS-65" value="Добавить определение переменной" style="ellipse;whiteSpace=wrap;html=1;labelBackgroundColor=none;" vertex="1" parent="1">
          <mxGeometry x="1300" y="820" width="140" height="70" as="geometry" />
        </mxCell>
        <mxCell id="BDvYHgdxMdl73DATvYiS-67" value="&amp;lt;&amp;lt;include&amp;gt;&amp;gt;" style="edgeStyle=none;html=1;endArrow=open;verticalAlign=bottom;dashed=1;labelBackgroundColor=none;rounded=0;fontColor=default;" edge="1" parent="1" source="BDvYHgdxMdl73DATvYiS-40" target="BDvYHgdxMdl73DATvYiS-64">
          <mxGeometry width="160" relative="1" as="geometry">
            <mxPoint x="280" y="750" as="sourcePoint" />
            <mxPoint x="440" y="750" as="targetPoint" />
          </mxGeometry>
        </mxCell>
        <mxCell id="BDvYHgdxMdl73DATvYiS-68" value="&amp;lt;&amp;lt;include&amp;gt;&amp;gt;" style="edgeStyle=none;html=1;endArrow=open;verticalAlign=bottom;dashed=1;labelBackgroundColor=none;rounded=0;fontColor=default;" edge="1" parent="1" source="BDvYHgdxMdl73DATvYiS-40" target="BDvYHgdxMdl73DATvYiS-65">
          <mxGeometry width="160" relative="1" as="geometry">
            <mxPoint x="18" y="910" as="sourcePoint" />
            <mxPoint x="32" y="970" as="targetPoint" />
          </mxGeometry>
        </mxCell>
        <mxCell id="BDvYHgdxMdl73DATvYiS-70" value="Использовать переменную" style="ellipse;whiteSpace=wrap;html=1;fillStyle=auto;labelBackgroundColor=none;" vertex="1" parent="1">
          <mxGeometry x="1270" y="695" width="140" height="70" as="geometry" />
        </mxCell>
        <mxCell id="BDvYHgdxMdl73DATvYiS-71" value="&amp;lt;&amp;lt;include&amp;gt;&amp;gt;" style="edgeStyle=none;html=1;endArrow=open;verticalAlign=bottom;dashed=1;labelBackgroundColor=none;rounded=0;fontColor=default;" edge="1" parent="1" source="BDvYHgdxMdl73DATvYiS-40" target="BDvYHgdxMdl73DATvYiS-70">
          <mxGeometry width="160" relative="1" as="geometry">
            <mxPoint x="-29" y="904" as="sourcePoint" />
            <mxPoint x="-111" y="966" as="targetPoint" />
          </mxGeometry>
        </mxCell>
        <mxCell id="BDvYHgdxMdl73DATvYiS-75" value="" style="edgeStyle=none;html=1;endArrow=none;verticalAlign=bottom;rounded=0;labelBackgroundColor=none;fontColor=default;" edge="1" parent="1" source="BDvYHgdxMdl73DATvYiS-1" target="BDvYHgdxMdl73DATvYiS-40">
          <mxGeometry width="160" relative="1" as="geometry">
            <mxPoint x="90" y="760" as="sourcePoint" />
            <mxPoint x="466" y="753" as="targetPoint" />
          </mxGeometry>
        </mxCell>
        <mxCell id="BDvYHgdxMdl73DATvYiS-76" value="" style="edgeStyle=none;html=1;endArrow=none;verticalAlign=bottom;rounded=0;labelBackgroundColor=none;fontColor=default;" edge="1" parent="1" source="BDvYHgdxMdl73DATvYiS-1" target="BDvYHgdxMdl73DATvYiS-48">
          <mxGeometry width="160" relative="1" as="geometry">
            <mxPoint x="70" y="596" as="sourcePoint" />
            <mxPoint x="477" y="974" as="targetPoint" />
          </mxGeometry>
        </mxCell>
        <mxCell id="BDvYHgdxMdl73DATvYiS-79" value="Сделать переменную глобальной" style="ellipse;whiteSpace=wrap;html=1;labelBackgroundColor=none;" vertex="1" parent="1">
          <mxGeometry x="1170" y="1050" width="140" height="70" as="geometry" />
        </mxCell>
        <mxCell id="BDvYHgdxMdl73DATvYiS-80" value="&amp;lt;&amp;lt;include&amp;gt;&amp;gt;" style="edgeStyle=none;html=1;endArrow=open;verticalAlign=bottom;dashed=1;labelBackgroundColor=none;rounded=0;fontColor=default;" edge="1" parent="1" source="BDvYHgdxMdl73DATvYiS-40" target="BDvYHgdxMdl73DATvYiS-79">
          <mxGeometry width="160" relative="1" as="geometry">
            <mxPoint x="550" y="1090" as="sourcePoint" />
            <mxPoint x="430" y="827" as="targetPoint" />
          </mxGeometry>
        </mxCell>
        <mxCell id="BDvYHgdxMdl73DATvYiS-81" value="Уничтожить определение переменной" style="ellipse;whiteSpace=wrap;html=1;labelBackgroundColor=none;" vertex="1" parent="1">
          <mxGeometry x="987.5" y="1040" width="140" height="70" as="geometry" />
        </mxCell>
        <mxCell id="BDvYHgdxMdl73DATvYiS-82" value="&amp;lt;&amp;lt;include&amp;gt;&amp;gt;" style="edgeStyle=none;html=1;endArrow=open;verticalAlign=bottom;dashed=1;labelBackgroundColor=none;rounded=0;fontColor=default;" edge="1" parent="1" source="BDvYHgdxMdl73DATvYiS-40" target="BDvYHgdxMdl73DATvYiS-81">
          <mxGeometry width="160" relative="1" as="geometry">
            <mxPoint x="385" y="1185" as="sourcePoint" />
            <mxPoint x="-153" y="1160" as="targetPoint" />
          </mxGeometry>
        </mxCell>
        <mxCell id="pe-RIKtGnwJWCJ9cNd3e-10" value="Добавить имя файла(-ов)" style="ellipse;whiteSpace=wrap;html=1;labelBackgroundColor=none;" vertex="1" parent="1">
          <mxGeometry x="1100" y="170" width="160" height="80" as="geometry" />
        </mxCell>
        <mxCell id="pe-RIKtGnwJWCJ9cNd3e-11" value="Вызвать команду без&amp;nbsp;&lt;div&gt;имени файла - ввод в&amp;nbsp;&lt;div&gt;стандартном потоке&lt;/div&gt;&lt;/div&gt;" style="ellipse;whiteSpace=wrap;html=1;labelBackgroundColor=none;" vertex="1" parent="1">
          <mxGeometry x="1100" y="298" width="160" height="80" as="geometry" />
        </mxCell>
        <mxCell id="pe-RIKtGnwJWCJ9cNd3e-12" value="" style="edgeStyle=none;html=1;endSize=12;endArrow=block;endFill=0;rounded=0;labelBackgroundColor=none;fontColor=default;" edge="1" parent="1" source="pe-RIKtGnwJWCJ9cNd3e-10" target="BDvYHgdxMdl73DATvYiS-25">
          <mxGeometry width="160" relative="1" as="geometry">
            <mxPoint x="760" y="440" as="sourcePoint" />
            <mxPoint x="920" y="440" as="targetPoint" />
          </mxGeometry>
        </mxCell>
        <mxCell id="pe-RIKtGnwJWCJ9cNd3e-13" value="" style="edgeStyle=none;html=1;endSize=12;endArrow=block;endFill=0;rounded=0;labelBackgroundColor=none;fontColor=default;" edge="1" parent="1" source="pe-RIKtGnwJWCJ9cNd3e-11" target="BDvYHgdxMdl73DATvYiS-25">
          <mxGeometry width="160" relative="1" as="geometry">
            <mxPoint x="959" y="251" as="sourcePoint" />
            <mxPoint x="881" y="299" as="targetPoint" />
          </mxGeometry>
        </mxCell>
        <mxCell id="pe-RIKtGnwJWCJ9cNd3e-27" value="&lt;ol style=&quot;box-sizing: border-box; --tw-border-spacing-x: 0; --tw-border-spacing-y: 0; --tw-translate-x: 0; --tw-translate-y: 0; --tw-rotate: 0; --tw-skew-x: 0; --tw-skew-y: 0; --tw-scale-x: 1; --tw-scale-y: 1; --tw-pan-x: ; --tw-pan-y: ; --tw-pinch-zoom: ; --tw-scroll-snap-strictness: proximity; --tw-ordinal: ; --tw-slashed-zero: ; --tw-numeric-figure: ; --tw-numeric-spacing: ; --tw-numeric-fraction: ; --tw-ring-inset: ; --tw-ring-offset-width: 0px; --tw-ring-offset-color: light-dark(#fff, #000000); --tw-ring-color: light-dark(rgba(59, 130, 246, 0.5), #4c89ec); --tw-ring-offset-shadow: 0 0 rgba(0,0,0,0); --tw-ring-shadow: 0 0 rgba(0,0,0,0); --tw-shadow: 0 0 rgba(0,0,0,0); --tw-shadow-colored: 0 0 rgba(0,0,0,0); --tw-blur: ; --tw-brightness: ; --tw-contrast: ; --tw-grayscale: ; --tw-hue-rotate: ; --tw-invert: ; --tw-saturate: ; --tw-sepia: ; --tw-drop-shadow: ; --tw-backdrop-blur: ; --tw-backdrop-brightness: ; --tw-backdrop-contrast: ; --tw-backdrop-grayscale: ; --tw-backdrop-hue-rotate: ; --tw-backdrop-invert: ; --tw-backdrop-opacity: ; --tw-backdrop-saturate: ; --tw-backdrop-sepia: ; counter-reset: list 0; margin: var(--spacing-24) 0; padding: 0 0 0 var(--spacing-8); list-style: none; color: rgb(14, 14, 15); font-family: Inter, Arial, sans-serif; letter-spacing: -0.26px;&quot;&gt;&lt;li style=&quot;box-sizing: border-box; --tw-border-spacing-x: 0; --tw-border-spacing-y: 0; --tw-translate-x: 0; --tw-translate-y: 0; --tw-rotate: 0; --tw-skew-x: 0; --tw-skew-y: 0; --tw-scale-x: 1; --tw-scale-y: 1; --tw-pan-x: ; --tw-pan-y: ; --tw-pinch-zoom: ; --tw-scroll-snap-strictness: proximity; --tw-ordinal: ; --tw-slashed-zero: ; --tw-numeric-figure: ; --tw-numeric-spacing: ; --tw-numeric-fraction: ; --tw-ring-inset: ; --tw-ring-offset-width: 0px; --tw-ring-offset-color: light-dark(#fff, #000000); --tw-ring-color: light-dark(rgba(59, 130, 246, 0.5), #4c89ec); --tw-ring-offset-shadow: 0 0 rgba(0,0,0,0); --tw-ring-shadow: 0 0 rgba(0,0,0,0); --tw-shadow: 0 0 rgba(0,0,0,0); --tw-shadow-colored: 0 0 rgba(0,0,0,0); --tw-blur: ; --tw-brightness: ; --tw-contrast: ; --tw-grayscale: ; --tw-hue-rotate: ; --tw-invert: ; --tw-saturate: ; --tw-sepia: ; --tw-drop-shadow: ; --tw-backdrop-blur: ; --tw-backdrop-brightness: ; --tw-backdrop-contrast: ; --tw-backdrop-grayscale: ; --tw-backdrop-hue-rotate: ; --tw-backdrop-invert: ; --tw-backdrop-opacity: ; --tw-backdrop-saturate: ; --tw-backdrop-sepia: ; counter-increment: list 1; padding-left: var(--spacing-32); position: relative; margin-top: 0px; font-weight: inherit !important;&quot;&gt;&lt;span style=&quot;letter-spacing: -0.26px;&quot;&gt;Добавить&amp;nbsp;&lt;/span&gt;-b&amp;nbsp;&lt;/li&gt;&lt;li style=&quot;box-sizing: border-box; --tw-border-spacing-x: 0; --tw-border-spacing-y: 0; --tw-translate-x: 0; --tw-translate-y: 0; --tw-rotate: 0; --tw-skew-x: 0; --tw-skew-y: 0; --tw-scale-x: 1; --tw-scale-y: 1; --tw-pan-x: ; --tw-pan-y: ; --tw-pinch-zoom: ; --tw-scroll-snap-strictness: proximity; --tw-ordinal: ; --tw-slashed-zero: ; --tw-numeric-figure: ; --tw-numeric-spacing: ; --tw-numeric-fraction: ; --tw-ring-inset: ; --tw-ring-offset-width: 0px; --tw-ring-offset-color: light-dark(#fff, #000000); --tw-ring-color: light-dark(rgba(59, 130, 246, 0.5), #4c89ec); --tw-ring-offset-shadow: 0 0 rgba(0,0,0,0); --tw-ring-shadow: 0 0 rgba(0,0,0,0); --tw-shadow: 0 0 rgba(0,0,0,0); --tw-shadow-colored: 0 0 rgba(0,0,0,0); --tw-blur: ; --tw-brightness: ; --tw-contrast: ; --tw-grayscale: ; --tw-hue-rotate: ; --tw-invert: ; --tw-saturate: ; --tw-sepia: ; --tw-drop-shadow: ; --tw-backdrop-blur: ; --tw-backdrop-brightness: ; --tw-backdrop-contrast: ; --tw-backdrop-grayscale: ; --tw-backdrop-hue-rotate: ; --tw-backdrop-invert: ; --tw-backdrop-opacity: ; --tw-backdrop-saturate: ; --tw-backdrop-sepia: ; counter-increment: list 1; padding-left: var(--spacing-32); position: relative; margin-top: 0px; font-weight: inherit !important;&quot;&gt;(включить нумерацию непустых строк)&lt;/li&gt;&lt;/ol&gt;" style="ellipse;whiteSpace=wrap;html=1;align=center;labelBackgroundColor=none;fillColor=#FFF9DD;strokeColor=#d6b656;" vertex="1" parent="1">
          <mxGeometry x="690" y="100" width="140" height="70" as="geometry" />
        </mxCell>
        <mxCell id="pe-RIKtGnwJWCJ9cNd3e-28" value="&lt;span style=&quot;color: rgb(14, 14, 15); font-family: Inter, Arial, sans-serif; letter-spacing: -0.26px;&quot;&gt;&lt;span style=&quot;letter-spacing: -0.26px;&quot;&gt;Добавить&amp;nbsp;&lt;/span&gt;-E&amp;nbsp;&lt;/span&gt;&lt;div&gt;&lt;span style=&quot;color: rgb(14, 14, 15); font-family: Inter, Arial, sans-serif; letter-spacing: -0.26px;&quot;&gt;(в конце каждой строки отображать $)&lt;/span&gt;&lt;/div&gt;" style="ellipse;whiteSpace=wrap;html=1;labelBackgroundColor=none;fillColor=#FFF9DD;strokeColor=#d6b656;" vertex="1" parent="1">
          <mxGeometry x="535" y="65" width="140" height="70" as="geometry" />
        </mxCell>
        <mxCell id="pe-RIKtGnwJWCJ9cNd3e-29" value="&lt;span style=&quot;color: rgb(14, 14, 15); font-family: Inter, Arial, sans-serif; letter-spacing: -0.26px;&quot;&gt;&lt;span style=&quot;letter-spacing: -0.26px;&quot;&gt;Добавить&amp;nbsp;&lt;/span&gt;-n&amp;nbsp;&lt;/span&gt;&lt;div&gt;&lt;ol style=&quot;box-sizing: border-box; --tw-border-spacing-x: 0; --tw-border-spacing-y: 0; --tw-translate-x: 0; --tw-translate-y: 0; --tw-rotate: 0; --tw-skew-x: 0; --tw-skew-y: 0; --tw-scale-x: 1; --tw-scale-y: 1; --tw-pan-x: ; --tw-pan-y: ; --tw-pinch-zoom: ; --tw-scroll-snap-strictness: proximity; --tw-ordinal: ; --tw-slashed-zero: ; --tw-numeric-figure: ; --tw-numeric-spacing: ; --tw-numeric-fraction: ; --tw-ring-inset: ; --tw-ring-offset-width: 0px; --tw-ring-offset-color: light-dark(#fff, #000000); --tw-ring-color: light-dark(rgba(59, 130, 246, 0.5), #4c89ec); --tw-ring-offset-shadow: 0 0 rgba(0,0,0,0); --tw-ring-shadow: 0 0 rgba(0,0,0,0); --tw-shadow: 0 0 rgba(0,0,0,0); --tw-shadow-colored: 0 0 rgba(0,0,0,0); --tw-blur: ; --tw-brightness: ; --tw-contrast: ; --tw-grayscale: ; --tw-hue-rotate: ; --tw-invert: ; --tw-saturate: ; --tw-sepia: ; --tw-drop-shadow: ; --tw-backdrop-blur: ; --tw-backdrop-brightness: ; --tw-backdrop-contrast: ; --tw-backdrop-grayscale: ; --tw-backdrop-hue-rotate: ; --tw-backdrop-invert: ; --tw-backdrop-opacity: ; --tw-backdrop-saturate: ; --tw-backdrop-sepia: ; counter-reset: list 0; margin: var(--spacing-24) 0; padding: 0 0 0 var(--spacing-8); list-style: none; color: rgb(14, 14, 15); font-family: Inter, Arial, sans-serif; letter-spacing: -0.26px;&quot;&gt;&lt;li style=&quot;box-sizing: border-box; --tw-border-spacing-x: 0; --tw-border-spacing-y: 0; --tw-translate-x: 0; --tw-translate-y: 0; --tw-rotate: 0; --tw-skew-x: 0; --tw-skew-y: 0; --tw-scale-x: 1; --tw-scale-y: 1; --tw-pan-x: ; --tw-pan-y: ; --tw-pinch-zoom: ; --tw-scroll-snap-strictness: proximity; --tw-ordinal: ; --tw-slashed-zero: ; --tw-numeric-figure: ; --tw-numeric-spacing: ; --tw-numeric-fraction: ; --tw-ring-inset: ; --tw-ring-offset-width: 0px; --tw-ring-offset-color: light-dark(#fff, #000000); --tw-ring-color: light-dark(rgba(59, 130, 246, 0.5), #4c89ec); --tw-ring-offset-shadow: 0 0 rgba(0,0,0,0); --tw-ring-shadow: 0 0 rgba(0,0,0,0); --tw-shadow: 0 0 rgba(0,0,0,0); --tw-shadow-colored: 0 0 rgba(0,0,0,0); --tw-blur: ; --tw-brightness: ; --tw-contrast: ; --tw-grayscale: ; --tw-hue-rotate: ; --tw-invert: ; --tw-saturate: ; --tw-sepia: ; --tw-drop-shadow: ; --tw-backdrop-blur: ; --tw-backdrop-brightness: ; --tw-backdrop-contrast: ; --tw-backdrop-grayscale: ; --tw-backdrop-hue-rotate: ; --tw-backdrop-invert: ; --tw-backdrop-opacity: ; --tw-backdrop-saturate: ; --tw-backdrop-sepia: ; counter-increment: list 1; padding-left: var(--spacing-32); position: relative; margin-top: 0px; font-weight: inherit !important;&quot;&gt;(включить нумерацию всех строк)&lt;/li&gt;&lt;/ol&gt;&lt;/div&gt;" style="ellipse;whiteSpace=wrap;html=1;labelBackgroundColor=none;fillColor=#FFF9DD;strokeColor=#d6b656;" vertex="1" parent="1">
          <mxGeometry x="720" y="190" width="140" height="70" as="geometry" />
        </mxCell>
        <mxCell id="pe-RIKtGnwJWCJ9cNd3e-30" value="&lt;span style=&quot;color: rgb(14, 14, 15); font-family: Inter, Arial, sans-serif; letter-spacing: -0.26px;&quot;&gt;Добавить -s&amp;nbsp;&lt;/span&gt;&lt;div&gt;&lt;span style=&quot;color: rgb(14, 14, 15); font-family: Inter, Arial, sans-serif; letter-spacing: -0.26px;&quot;&gt;(удалять&amp;nbsp;&lt;/span&gt;&lt;span style=&quot;color: rgb(14, 14, 15); font-family: Inter, Arial, sans-serif; letter-spacing: -0.26px; background-color: transparent;&quot;&gt;повторяющиеся&lt;/span&gt;&lt;span style=&quot;color: rgb(14, 14, 15); font-family: Inter, Arial, sans-serif; letter-spacing: -0.26px; background-color: transparent;&quot;&gt;&amp;nbsp;&lt;/span&gt;&lt;/div&gt;&lt;div&gt;&lt;span style=&quot;color: light-dark(rgb(14, 14, 15), rgb(225, 225, 226)); font-family: Inter, Arial, sans-serif; letter-spacing: -0.26px; background-color: transparent;&quot;&gt;пустые строки)&lt;/span&gt;&lt;/div&gt;" style="ellipse;whiteSpace=wrap;html=1;labelBackgroundColor=none;fillColor=#FFF9DD;strokeColor=#d6b656;" vertex="1" parent="1">
          <mxGeometry x="360" y="70" width="140" height="70" as="geometry" />
        </mxCell>
        <mxCell id="pe-RIKtGnwJWCJ9cNd3e-31" value="&lt;span style=&quot;color: rgb(14, 14, 15); font-family: Inter, Arial, sans-serif; letter-spacing: -0.26px;&quot;&gt;&lt;span style=&quot;letter-spacing: -0.26px;&quot;&gt;Добавить&amp;nbsp;&lt;/span&gt;-T&amp;nbsp;&lt;/span&gt;&lt;div&gt;&lt;span style=&quot;color: rgb(14, 14, 15); font-family: Inter, Arial, sans-serif; letter-spacing: -0.26px;&quot;&gt;(помечать табуляции комбинацией ^I)&lt;/span&gt;&lt;/div&gt;" style="ellipse;whiteSpace=wrap;html=1;labelBackgroundColor=none;fillColor=#FFF9DD;strokeColor=#d6b656;" vertex="1" parent="1">
          <mxGeometry x="220" y="125" width="140" height="70" as="geometry" />
        </mxCell>
        <mxCell id="pe-RIKtGnwJWCJ9cNd3e-32" value="&amp;lt;&amp;lt;extend&amp;gt;&amp;gt;" style="align=right;html=1;verticalAlign=bottom;rounded=0;labelBackgroundColor=none;endArrow=open;endSize=12;dashed=1;fontColor=default;" edge="1" parent="1" source="pe-RIKtGnwJWCJ9cNd3e-30" target="BDvYHgdxMdl73DATvYiS-28">
          <mxGeometry relative="1" as="geometry">
            <mxPoint x="693.4310550620803" y="197.61909835691063" as="targetPoint" />
            <mxPoint x="559" y="270" as="sourcePoint" />
          </mxGeometry>
        </mxCell>
        <mxCell id="pe-RIKtGnwJWCJ9cNd3e-33" value="&amp;lt;&amp;lt;extend&amp;gt;&amp;gt;" style="align=right;html=1;verticalAlign=bottom;rounded=0;labelBackgroundColor=none;endArrow=open;endSize=12;dashed=1;fontColor=default;" edge="1" parent="1" source="pe-RIKtGnwJWCJ9cNd3e-27" target="BDvYHgdxMdl73DATvYiS-28">
          <mxGeometry relative="1" as="geometry">
            <mxPoint x="726.3375022229006" y="195.1437377740467" as="targetPoint" />
            <mxPoint x="597" y="77" as="sourcePoint" />
          </mxGeometry>
        </mxCell>
        <mxCell id="pe-RIKtGnwJWCJ9cNd3e-34" value="&amp;lt;&amp;lt;extend&amp;gt;&amp;gt;" style="align=right;html=1;verticalAlign=bottom;rounded=0;labelBackgroundColor=none;endArrow=open;endSize=12;dashed=1;fontColor=default;" edge="1" parent="1" source="pe-RIKtGnwJWCJ9cNd3e-29" target="BDvYHgdxMdl73DATvYiS-28">
          <mxGeometry relative="1" as="geometry">
            <mxPoint x="750.6896542415138" y="198.5431044024483" as="targetPoint" />
            <mxPoint x="754" y="110" as="sourcePoint" />
          </mxGeometry>
        </mxCell>
        <mxCell id="pe-RIKtGnwJWCJ9cNd3e-35" value="&amp;lt;&amp;lt;extend&amp;gt;&amp;gt;" style="align=right;html=1;verticalAlign=bottom;rounded=0;labelBackgroundColor=none;endArrow=open;endSize=12;dashed=1;fontColor=default;" edge="1" parent="1" source="pe-RIKtGnwJWCJ9cNd3e-28" target="BDvYHgdxMdl73DATvYiS-28">
          <mxGeometry relative="1" as="geometry">
            <mxPoint x="727.0821171468674" y="195.17959069456856" as="targetPoint" />
            <mxPoint x="899" y="66" as="sourcePoint" />
          </mxGeometry>
        </mxCell>
        <mxCell id="pe-RIKtGnwJWCJ9cNd3e-36" value="&amp;lt;&amp;lt;extend&amp;gt;&amp;gt;" style="align=right;html=1;verticalAlign=bottom;rounded=0;labelBackgroundColor=none;endArrow=open;endSize=12;dashed=1;fontColor=default;" edge="1" parent="1" source="pe-RIKtGnwJWCJ9cNd3e-31" target="BDvYHgdxMdl73DATvYiS-28">
          <mxGeometry relative="1" as="geometry">
            <mxPoint x="700.4469321419083" y="196.39316461890462" as="targetPoint" />
            <mxPoint x="783" y="-20" as="sourcePoint" />
          </mxGeometry>
        </mxCell>
        <mxCell id="pe-RIKtGnwJWCJ9cNd3e-38" value="Добавить -n&amp;nbsp;&lt;div&gt;(не выводить перевод строки)&lt;/div&gt;" style="ellipse;html=1;whiteSpace=wrap;labelBackgroundColor=none;fillColor=#FFF9DD;strokeColor=#d6b656;" vertex="1" parent="1">
          <mxGeometry x="535" y="330" width="140" height="70" as="geometry" />
        </mxCell>
        <mxCell id="pe-RIKtGnwJWCJ9cNd3e-39" value="Добавить -e&amp;nbsp;&lt;span style=&quot;background-color: transparent; color: light-dark(rgb(0, 0, 0), rgb(255, 255, 255));&quot;&gt;(включить&amp;nbsp;&lt;/span&gt;&lt;div&gt;поддержку вывода Escape&amp;nbsp;&lt;/div&gt;&lt;div&gt;последовательностей)&lt;/div&gt;" style="ellipse;html=1;whiteSpace=wrap;labelBackgroundColor=none;fillColor=#FFF9DD;strokeColor=#d6b656;" vertex="1" parent="1">
          <mxGeometry x="710" y="330" width="175" height="70" as="geometry" />
        </mxCell>
        <mxCell id="pe-RIKtGnwJWCJ9cNd3e-40" value="Добавить -E (отключить интерпретацию Escape последовательностей" style="ellipse;html=1;whiteSpace=wrap;labelBackgroundColor=none;fillColor=#FFF9DD;strokeColor=#d6b656;" vertex="1" parent="1">
          <mxGeometry x="880" y="378" width="175" height="70" as="geometry" />
        </mxCell>
        <mxCell id="pe-RIKtGnwJWCJ9cNd3e-41" value="&amp;lt;&amp;lt;extend&amp;gt;&amp;gt;" style="edgeStyle=none;html=1;startArrow=open;endArrow=none;startSize=12;verticalAlign=bottom;dashed=1;labelBackgroundColor=none;rounded=0;fontColor=default;" edge="1" parent="1" source="BDvYHgdxMdl73DATvYiS-35" target="pe-RIKtGnwJWCJ9cNd3e-38">
          <mxGeometry width="160" relative="1" as="geometry">
            <mxPoint x="600" y="600" as="sourcePoint" />
            <mxPoint x="760" y="600" as="targetPoint" />
          </mxGeometry>
        </mxCell>
        <mxCell id="pe-RIKtGnwJWCJ9cNd3e-42" value="&amp;lt;&amp;lt;extend&amp;gt;&amp;gt;" style="edgeStyle=none;html=1;startArrow=open;endArrow=none;startSize=12;verticalAlign=bottom;dashed=1;labelBackgroundColor=none;rounded=0;fontColor=default;" edge="1" parent="1" source="BDvYHgdxMdl73DATvYiS-35" target="pe-RIKtGnwJWCJ9cNd3e-39">
          <mxGeometry width="160" relative="1" as="geometry">
            <mxPoint x="760" y="503" as="sourcePoint" />
            <mxPoint x="170" y="487" as="targetPoint" />
          </mxGeometry>
        </mxCell>
        <mxCell id="pe-RIKtGnwJWCJ9cNd3e-43" value="&amp;lt;&amp;lt;extend&amp;gt;&amp;gt;" style="edgeStyle=none;html=1;startArrow=open;endArrow=none;startSize=12;verticalAlign=bottom;dashed=1;labelBackgroundColor=none;rounded=0;fontColor=default;" edge="1" parent="1" source="BDvYHgdxMdl73DATvYiS-35" target="pe-RIKtGnwJWCJ9cNd3e-40">
          <mxGeometry width="160" relative="1" as="geometry">
            <mxPoint x="764" y="493" as="sourcePoint" />
            <mxPoint x="52" y="364" as="targetPoint" />
          </mxGeometry>
        </mxCell>
        <mxCell id="pe-RIKtGnwJWCJ9cNd3e-45" value="Добавить&amp;nbsp;&lt;span style=&quot;text-wrap-mode: nowrap;&quot;&gt;-w&lt;/span&gt;&amp;nbsp;&lt;div&gt;(&lt;span style=&quot;text-wrap-mode: nowrap;&quot;&gt;--words)&amp;nbsp;&lt;/span&gt;(&lt;span style=&quot;background-color: transparent; color: light-dark(rgb(0, 0, 0), rgb(255, 255, 255)); text-wrap-mode: nowrap;&quot;&gt;в&lt;/span&gt;&lt;span style=&quot;background-color: transparent; color: light-dark(rgb(0, 0, 0), rgb(255, 255, 255)); text-wrap-mode: nowrap;&quot;&gt;ывести&amp;nbsp;&lt;/span&gt;&lt;/div&gt;&lt;div&gt;&lt;span style=&quot;text-wrap-mode: nowrap;&quot;&gt;количество слов)&lt;/span&gt;&lt;/div&gt;" style="ellipse;whiteSpace=wrap;html=1;labelBackgroundColor=none;fillColor=#FFF9DD;strokeColor=#d6b656;" vertex="1" parent="1">
          <mxGeometry x="730" y="770" width="140" height="70" as="geometry" />
        </mxCell>
        <mxCell id="pe-RIKtGnwJWCJ9cNd3e-46" value="Добавить&amp;nbsp;&lt;span style=&quot;text-wrap-mode: nowrap;&quot;&gt;-l&lt;/span&gt;&amp;nbsp;&lt;div&gt;(&lt;span style=&quot;text-wrap-mode: nowrap;&quot;&gt;--lines) (в&lt;/span&gt;&lt;span style=&quot;text-wrap-mode: nowrap;&quot;&gt;ывести&amp;nbsp;&lt;/span&gt;&lt;/div&gt;&lt;div&gt;&lt;span style=&quot;text-wrap-mode: nowrap;&quot;&gt;количество строк)&lt;/span&gt;&lt;/div&gt;" style="ellipse;whiteSpace=wrap;html=1;labelBackgroundColor=none;fillColor=#FFF9DD;strokeColor=#d6b656;" vertex="1" parent="1">
          <mxGeometry x="830" y="598" width="140" height="70" as="geometry" />
        </mxCell>
        <mxCell id="pe-RIKtGnwJWCJ9cNd3e-47" value="Добавить&amp;nbsp;&lt;span style=&quot;text-wrap-mode: nowrap;&quot;&gt;-m&lt;/span&gt;&amp;nbsp;&lt;div&gt;(&lt;span style=&quot;text-wrap-mode: nowrap;&quot;&gt;--count)&amp;nbsp;&lt;/span&gt;(&lt;span style=&quot;background-color: transparent; color: light-dark(rgb(0, 0, 0), rgb(255, 255, 255)); text-wrap-mode: nowrap;&quot;&gt;в&lt;/span&gt;&lt;span style=&quot;background-color: transparent; color: light-dark(rgb(0, 0, 0), rgb(255, 255, 255)); text-wrap-mode: nowrap;&quot;&gt;ывести&amp;nbsp;&lt;/span&gt;&lt;/div&gt;&lt;div&gt;&lt;span style=&quot;text-wrap-mode: nowrap;&quot;&gt;кол-во символов)&lt;/span&gt;&lt;/div&gt;" style="ellipse;whiteSpace=wrap;html=1;labelBackgroundColor=none;fillColor=#FFF9DD;strokeColor=#d6b656;" vertex="1" parent="1">
          <mxGeometry x="665" y="550" width="140" height="70" as="geometry" />
        </mxCell>
        <mxCell id="pe-RIKtGnwJWCJ9cNd3e-48" value="Добавить&amp;nbsp;&lt;span style=&quot;text-wrap-mode: nowrap;&quot;&gt;-c&amp;nbsp;&lt;/span&gt;&lt;div&gt;&lt;span style=&quot;text-wrap-mode: nowrap;&quot;&gt;(&lt;/span&gt;&lt;span style=&quot;text-wrap-mode: nowrap;&quot;&gt;--bytes)&amp;nbsp;&lt;/span&gt;&lt;span style=&quot;background-color: transparent; color: light-dark(rgb(0, 0, 0), rgb(255, 255, 255)); text-wrap-mode: nowrap;&quot;&gt;(&lt;/span&gt;&lt;span style=&quot;background-color: transparent; color: light-dark(rgb(0, 0, 0), rgb(255, 255, 255)); text-wrap-mode: nowrap;&quot;&gt;в&lt;/span&gt;&lt;span style=&quot;background-color: transparent; color: light-dark(rgb(0, 0, 0), rgb(255, 255, 255)); text-wrap-mode: nowrap;&quot;&gt;ывести&amp;nbsp;&lt;/span&gt;&lt;/div&gt;&lt;div&gt;&lt;span style=&quot;background-color: transparent; color: light-dark(rgb(0, 0, 0), rgb(255, 255, 255)); text-wrap-mode: nowrap;&quot;&gt;размер в байтах)&lt;/span&gt;&lt;/div&gt;" style="ellipse;whiteSpace=wrap;html=1;labelBackgroundColor=none;fillColor=#FFF9DD;strokeColor=#d6b656;" vertex="1" parent="1">
          <mxGeometry x="500" y="550" width="140" height="70" as="geometry" />
        </mxCell>
        <mxCell id="pe-RIKtGnwJWCJ9cNd3e-49" value="&amp;lt;&amp;lt;extend&amp;gt;&amp;gt;" style="edgeStyle=none;html=1;startArrow=open;endArrow=none;startSize=12;verticalAlign=bottom;dashed=1;labelBackgroundColor=none;rounded=0;fontColor=default;" edge="1" parent="1" source="BDvYHgdxMdl73DATvYiS-42" target="pe-RIKtGnwJWCJ9cNd3e-48">
          <mxGeometry width="160" relative="1" as="geometry">
            <mxPoint x="1080" y="890" as="sourcePoint" />
            <mxPoint x="1240" y="890" as="targetPoint" />
          </mxGeometry>
        </mxCell>
        <mxCell id="pe-RIKtGnwJWCJ9cNd3e-50" value="&amp;lt;&amp;lt;extend&amp;gt;&amp;gt;" style="edgeStyle=none;html=1;startArrow=open;endArrow=none;startSize=12;verticalAlign=bottom;dashed=1;labelBackgroundColor=none;rounded=0;fontColor=default;" edge="1" parent="1" source="BDvYHgdxMdl73DATvYiS-42" target="pe-RIKtGnwJWCJ9cNd3e-47">
          <mxGeometry width="160" relative="1" as="geometry">
            <mxPoint x="590" y="604" as="sourcePoint" />
            <mxPoint x="1560" y="596" as="targetPoint" />
          </mxGeometry>
        </mxCell>
        <mxCell id="pe-RIKtGnwJWCJ9cNd3e-51" value="&amp;lt;&amp;lt;extend&amp;gt;&amp;gt;" style="edgeStyle=none;html=1;startArrow=open;endArrow=none;startSize=12;verticalAlign=bottom;dashed=1;labelBackgroundColor=none;rounded=0;fontColor=default;" edge="1" parent="1" source="BDvYHgdxMdl73DATvYiS-42" target="pe-RIKtGnwJWCJ9cNd3e-45">
          <mxGeometry width="160" relative="1" as="geometry">
            <mxPoint x="589" y="612" as="sourcePoint" />
            <mxPoint x="1461" y="698" as="targetPoint" />
          </mxGeometry>
        </mxCell>
        <mxCell id="pe-RIKtGnwJWCJ9cNd3e-52" value="&amp;lt;&amp;lt;extend&amp;gt;&amp;gt;" style="edgeStyle=none;html=1;startArrow=open;endArrow=none;startSize=12;verticalAlign=bottom;dashed=1;labelBackgroundColor=none;rounded=0;fontColor=default;" edge="1" parent="1" source="BDvYHgdxMdl73DATvYiS-42" target="pe-RIKtGnwJWCJ9cNd3e-46">
          <mxGeometry width="160" relative="1" as="geometry">
            <mxPoint x="586" y="616" as="sourcePoint" />
            <mxPoint x="1724" y="804" as="targetPoint" />
          </mxGeometry>
        </mxCell>
        <mxCell id="pe-RIKtGnwJWCJ9cNd3e-54" value="&lt;span style=&quot;text-wrap-mode: nowrap;&quot;&gt;Добавить -L (--logical)&amp;nbsp;&lt;/span&gt;&lt;div&gt;&lt;span style=&quot;text-wrap-mode: nowrap;&quot;&gt;(брать директорию из переменной&amp;nbsp;&lt;/span&gt;&lt;/div&gt;&lt;div&gt;&lt;span style=&quot;text-wrap-mode: nowrap;&quot;&gt;окружения, даже если она содержит&amp;nbsp;&lt;/span&gt;&lt;/div&gt;&lt;div&gt;&lt;span style=&quot;text-wrap-mode: nowrap;&quot;&gt;символические ссылки)&lt;/span&gt;&lt;/div&gt;" style="ellipse;whiteSpace=wrap;html=1;labelBackgroundColor=none;fillColor=#FFF9DD;strokeColor=#d6b656;" vertex="1" parent="1">
          <mxGeometry x="710" y="1071" width="230" height="70" as="geometry" />
        </mxCell>
        <mxCell id="pe-RIKtGnwJWCJ9cNd3e-55" value="&lt;span style=&quot;text-wrap-mode: nowrap;&quot;&gt;Добавить -P&lt;/span&gt;&lt;div&gt;&lt;span style=&quot;text-wrap-mode: nowrap;&quot;&gt;(отбрасывать все&amp;nbsp;&lt;/span&gt;&lt;/div&gt;&lt;div&gt;&lt;span style=&quot;text-wrap-mode: nowrap;&quot;&gt;символические&amp;nbsp;&lt;/span&gt;&lt;/div&gt;&lt;div&gt;&lt;span style=&quot;text-wrap-mode: nowrap;&quot;&gt;ссылки)&lt;/span&gt;&lt;/div&gt;" style="ellipse;whiteSpace=wrap;html=1;labelBackgroundColor=none;fillColor=#FFF9DD;strokeColor=#d6b656;" vertex="1" parent="1">
          <mxGeometry x="790" y="910" width="140" height="70" as="geometry" />
        </mxCell>
        <mxCell id="pe-RIKtGnwJWCJ9cNd3e-58" value="Добавить имя файла(-ов)" style="ellipse;whiteSpace=wrap;html=1;labelBackgroundColor=none;" vertex="1" parent="1">
          <mxGeometry x="1010" y="570" width="160" height="80" as="geometry" />
        </mxCell>
        <mxCell id="pe-RIKtGnwJWCJ9cNd3e-59" value="Вызвать команду без&amp;nbsp;&lt;div&gt;имени файла - ввод в&amp;nbsp;&lt;div&gt;стандартном потоке&lt;/div&gt;&lt;/div&gt;" style="ellipse;whiteSpace=wrap;html=1;labelBackgroundColor=none;" vertex="1" parent="1">
          <mxGeometry x="1050" y="690" width="160" height="80" as="geometry" />
        </mxCell>
        <mxCell id="pe-RIKtGnwJWCJ9cNd3e-61" value="" style="edgeStyle=none;html=1;endSize=12;endArrow=block;endFill=0;rounded=0;labelBackgroundColor=none;fontColor=default;" edge="1" parent="1" source="pe-RIKtGnwJWCJ9cNd3e-58" target="BDvYHgdxMdl73DATvYiS-45">
          <mxGeometry width="160" relative="1" as="geometry">
            <mxPoint x="1418" y="1149" as="sourcePoint" />
            <mxPoint x="1210" y="1220" as="targetPoint" />
          </mxGeometry>
        </mxCell>
        <mxCell id="pe-RIKtGnwJWCJ9cNd3e-62" value="" style="edgeStyle=none;html=1;endSize=12;endArrow=block;endFill=0;rounded=0;labelBackgroundColor=none;fontColor=default;" edge="1" parent="1" source="pe-RIKtGnwJWCJ9cNd3e-59" target="BDvYHgdxMdl73DATvYiS-45">
          <mxGeometry width="160" relative="1" as="geometry">
            <mxPoint x="1120" y="1051" as="sourcePoint" />
            <mxPoint x="1000" y="828" as="targetPoint" />
          </mxGeometry>
        </mxCell>
        <mxCell id="pe-RIKtGnwJWCJ9cNd3e-75" value="Перенаправить&amp;nbsp;&lt;div&gt;вывод в пайп&lt;/div&gt;" style="ellipse;whiteSpace=wrap;html=1;labelBackgroundColor=none;" vertex="1" parent="1">
          <mxGeometry x="210" y="1210" width="140" height="70" as="geometry" />
        </mxCell>
        <mxCell id="pe-RIKtGnwJWCJ9cNd3e-76" value="Принять ввод из пайпа" style="ellipse;whiteSpace=wrap;html=1;labelBackgroundColor=none;" vertex="1" parent="1">
          <mxGeometry x="395" y="1210" width="140" height="70" as="geometry" />
        </mxCell>
        <mxCell id="pe-RIKtGnwJWCJ9cNd3e-79" value="&amp;lt;&amp;lt;include&amp;gt;&amp;gt;" style="edgeStyle=none;html=1;endArrow=open;verticalAlign=bottom;dashed=1;labelBackgroundColor=none;rounded=0;fontColor=default;" edge="1" parent="1" source="BDvYHgdxMdl73DATvYiS-48" target="pe-RIKtGnwJWCJ9cNd3e-75">
          <mxGeometry width="160" relative="1" as="geometry">
            <mxPoint x="640" y="1170" as="sourcePoint" />
            <mxPoint x="800" y="1170" as="targetPoint" />
          </mxGeometry>
        </mxCell>
        <mxCell id="pe-RIKtGnwJWCJ9cNd3e-80" value="&amp;lt;&amp;lt;include&amp;gt;&amp;gt;" style="edgeStyle=none;html=1;endArrow=open;verticalAlign=bottom;dashed=1;labelBackgroundColor=none;rounded=0;fontColor=default;" edge="1" parent="1" source="BDvYHgdxMdl73DATvYiS-48" target="pe-RIKtGnwJWCJ9cNd3e-76">
          <mxGeometry width="160" relative="1" as="geometry">
            <mxPoint x="640" y="1170" as="sourcePoint" />
            <mxPoint x="800" y="1170" as="targetPoint" />
          </mxGeometry>
        </mxCell>
        <mxCell id="D1du39QEUIahgVIUZ7up-44" value="Выбрать формат отображения путей" style="ellipse;whiteSpace=wrap;html=1;labelBackgroundColor=none;" vertex="1" parent="1">
          <mxGeometry x="615" y="960" width="140" height="70" as="geometry" />
        </mxCell>
        <mxCell id="D1du39QEUIahgVIUZ7up-45" value="&amp;lt;&amp;lt;extend&amp;gt;&amp;gt;" style="align=right;html=1;verticalAlign=bottom;rounded=0;labelBackgroundColor=none;endArrow=open;endSize=12;dashed=1;fontColor=default;" edge="1" parent="1" source="D1du39QEUIahgVIUZ7up-44" target="BDvYHgdxMdl73DATvYiS-49">
          <mxGeometry relative="1" as="geometry">
            <mxPoint x="543" y="912" as="targetPoint" />
            <mxPoint x="782" y="937" as="sourcePoint" />
          </mxGeometry>
        </mxCell>
        <mxCell id="D1du39QEUIahgVIUZ7up-50" value="" style="edgeStyle=none;html=1;endSize=12;endArrow=block;endFill=0;rounded=0;labelBackgroundColor=none;fontColor=default;" edge="1" parent="1" source="pe-RIKtGnwJWCJ9cNd3e-55" target="D1du39QEUIahgVIUZ7up-44">
          <mxGeometry width="160" relative="1" as="geometry">
            <mxPoint x="854" y="1077.5" as="sourcePoint" />
            <mxPoint x="780" y="1132.5" as="targetPoint" />
          </mxGeometry>
        </mxCell>
        <mxCell id="D1du39QEUIahgVIUZ7up-51" value="" style="edgeStyle=none;html=1;endSize=12;endArrow=block;endFill=0;rounded=0;labelBackgroundColor=none;fontColor=default;" edge="1" parent="1" source="pe-RIKtGnwJWCJ9cNd3e-54" target="D1du39QEUIahgVIUZ7up-44">
          <mxGeometry width="160" relative="1" as="geometry">
            <mxPoint x="833" y="1034" as="sourcePoint" />
            <mxPoint x="786" y="1026" as="targetPoint" />
          </mxGeometry>
        </mxCell>
      </root>
    </mxGraphModel>
  </diagram>
  <diagram id="hyzBCaZIXab5WvfFcKhc" name="SD">
    <mxGraphModel grid="1" page="1" gridSize="10" guides="1" tooltips="1" connect="1" arrows="1" fold="1" pageScale="1" pageWidth="1100" pageHeight="850" math="0" shadow="0">
      <root>
        <mxCell id="0" />
        <mxCell id="1" parent="0" />
        <mxCell id="nHt42p3JpCVHXGXA-LoF-1" value="&lt;div style=&quot;text-align: left;&quot;&gt;добавить вывод размера в байтах&lt;/div&gt;" style="html=1;verticalAlign=bottom;startArrow=oval;endArrow=block;startSize=8;curved=0;rounded=0;fontColor=default;labelBackgroundColor=none;" edge="1" parent="1">
          <mxGeometry relative="1" as="geometry">
            <mxPoint x="3795" y="602" as="sourcePoint" />
            <mxPoint x="4055" y="602" as="targetPoint" />
          </mxGeometry>
        </mxCell>
        <mxCell id="nHt42p3JpCVHXGXA-LoF-2" value="&lt;div style=&quot;text-align: left;&quot;&gt;добавить вывод количества символов&lt;/div&gt;" style="html=1;verticalAlign=bottom;startArrow=oval;endArrow=block;startSize=8;curved=0;rounded=0;fontColor=default;labelBackgroundColor=none;" edge="1" parent="1">
          <mxGeometry relative="1" as="geometry">
            <mxPoint x="3795" y="661" as="sourcePoint" />
            <mxPoint x="4055" y="661" as="targetPoint" />
          </mxGeometry>
        </mxCell>
        <mxCell id="nHt42p3JpCVHXGXA-LoF-3" value="&lt;div style=&quot;text-align: left;&quot;&gt;добавить вывод количества слов&lt;/div&gt;" style="html=1;verticalAlign=bottom;startArrow=oval;endArrow=block;startSize=8;curved=0;rounded=0;fontColor=default;labelBackgroundColor=none;" edge="1" parent="1">
          <mxGeometry relative="1" as="geometry">
            <mxPoint x="3795" y="800" as="sourcePoint" />
            <mxPoint x="4055" y="800" as="targetPoint" />
          </mxGeometry>
        </mxCell>
        <mxCell id="nHt42p3JpCVHXGXA-LoF-4" value="&lt;div style=&quot;text-align: left;&quot;&gt;добавить вывод количества строк&lt;/div&gt;" style="html=1;verticalAlign=bottom;startArrow=oval;endArrow=block;startSize=8;curved=0;rounded=0;fontColor=default;labelBackgroundColor=none;" edge="1" parent="1">
          <mxGeometry relative="1" as="geometry">
            <mxPoint x="3795" y="730" as="sourcePoint" />
            <mxPoint x="4055" y="730" as="targetPoint" />
          </mxGeometry>
        </mxCell>
        <mxCell id="nHt42p3JpCVHXGXA-LoF-5" value="&lt;div style=&quot;text-align: left;&quot;&gt;&lt;span style=&quot;background-color: transparent; color: light-dark(rgb(0, 0, 0), rgb(255, 255, 255));&quot;&gt;добавить вывод&lt;/span&gt;&amp;nbsp;числа строк, слов и байт&lt;/div&gt;" style="html=1;verticalAlign=bottom;startArrow=oval;endArrow=block;startSize=8;curved=0;rounded=0;fontColor=default;labelBackgroundColor=none;" edge="1" parent="1">
          <mxGeometry relative="1" as="geometry">
            <mxPoint x="3795" y="532" as="sourcePoint" />
            <mxPoint x="4055" y="532" as="targetPoint" />
          </mxGeometry>
        </mxCell>
        <mxCell id="nHt42p3JpCVHXGXA-LoF-6" value="&lt;div style=&quot;text-align: left;&quot;&gt;добавить вывод размера в байтах&lt;/div&gt;" style="html=1;verticalAlign=bottom;startArrow=oval;endArrow=block;startSize=8;curved=0;rounded=0;fontColor=default;labelBackgroundColor=none;" edge="1" parent="1">
          <mxGeometry relative="1" as="geometry">
            <mxPoint x="3795" y="1132" as="sourcePoint" />
            <mxPoint x="4055" y="1132" as="targetPoint" />
          </mxGeometry>
        </mxCell>
        <mxCell id="nHt42p3JpCVHXGXA-LoF-7" value="&lt;div style=&quot;text-align: left;&quot;&gt;добавить вывод количества символов&lt;/div&gt;" style="html=1;verticalAlign=bottom;startArrow=oval;endArrow=block;startSize=8;curved=0;rounded=0;fontColor=default;labelBackgroundColor=none;" edge="1" parent="1">
          <mxGeometry relative="1" as="geometry">
            <mxPoint x="3795" y="1191" as="sourcePoint" />
            <mxPoint x="4055" y="1191" as="targetPoint" />
          </mxGeometry>
        </mxCell>
        <mxCell id="nHt42p3JpCVHXGXA-LoF-8" value="&lt;div style=&quot;text-align: left;&quot;&gt;добавить вывод количества слов&lt;/div&gt;" style="html=1;verticalAlign=bottom;startArrow=oval;endArrow=block;startSize=8;curved=0;rounded=0;fontColor=default;labelBackgroundColor=none;" edge="1" parent="1">
          <mxGeometry relative="1" as="geometry">
            <mxPoint x="3795" y="1330" as="sourcePoint" />
            <mxPoint x="4055" y="1330" as="targetPoint" />
          </mxGeometry>
        </mxCell>
        <mxCell id="nHt42p3JpCVHXGXA-LoF-9" value="&lt;div style=&quot;text-align: left;&quot;&gt;добавить вывод количества строк&lt;/div&gt;" style="html=1;verticalAlign=bottom;startArrow=oval;endArrow=block;startSize=8;curved=0;rounded=0;fontColor=default;labelBackgroundColor=none;" edge="1" parent="1">
          <mxGeometry relative="1" as="geometry">
            <mxPoint x="3795" y="1260" as="sourcePoint" />
            <mxPoint x="4055" y="1260" as="targetPoint" />
          </mxGeometry>
        </mxCell>
        <mxCell id="nHt42p3JpCVHXGXA-LoF-10" value="&lt;div style=&quot;text-align: left;&quot;&gt;&lt;span style=&quot;background-color: transparent; color: light-dark(rgb(0, 0, 0), rgb(255, 255, 255));&quot;&gt;добавить вывод&lt;/span&gt;&amp;nbsp;числа строк, слов и байт&lt;/div&gt;" style="html=1;verticalAlign=bottom;startArrow=oval;endArrow=block;startSize=8;curved=0;rounded=0;fontColor=default;labelBackgroundColor=none;" edge="1" parent="1">
          <mxGeometry relative="1" as="geometry">
            <mxPoint x="3795" y="1062" as="sourcePoint" />
            <mxPoint x="4055" y="1062" as="targetPoint" />
          </mxGeometry>
        </mxCell>
        <mxCell id="nHt42p3JpCVHXGXA-LoF-11" value="Система: Bash" style="shape=umlLifeline;perimeter=lifelinePerimeter;whiteSpace=wrap;html=1;container=1;dropTarget=0;collapsible=0;recursiveResize=0;outlineConnect=0;portConstraint=eastwest;newEdgeStyle={&quot;curved&quot;:0,&quot;rounded&quot;:0};" vertex="1" parent="1">
          <mxGeometry x="1830" y="399" width="100" height="270" as="geometry" />
        </mxCell>
        <mxCell id="nHt42p3JpCVHXGXA-LoF-12" value="" style="rounded=0;whiteSpace=wrap;html=1;fillColor=none;labelBackgroundColor=none;" vertex="1" parent="1">
          <mxGeometry x="1830" y="568" width="340" height="80" as="geometry" />
        </mxCell>
        <mxCell id="nHt42p3JpCVHXGXA-LoF-13" value="&lt;div style=&quot;text-align: left;&quot;&gt;удалять повторяющиеся пустые строки&lt;/div&gt;" style="html=1;verticalAlign=bottom;startArrow=oval;endArrow=block;startSize=8;curved=0;rounded=0;fontColor=default;labelBackgroundColor=none;" edge="1" parent="1">
          <mxGeometry relative="1" as="geometry">
            <mxPoint x="2795" y="777" as="sourcePoint" />
            <mxPoint x="3054.9999999999995" y="777" as="targetPoint" />
          </mxGeometry>
        </mxCell>
        <mxCell id="nHt42p3JpCVHXGXA-LoF-14" value="&lt;div style=&quot;text-align: left;&quot;&gt;в конце каждой строки добавить $&lt;/div&gt;" style="html=1;verticalAlign=bottom;startArrow=oval;endArrow=block;startSize=8;curved=0;rounded=0;fontColor=default;labelBackgroundColor=none;" edge="1" parent="1">
          <mxGeometry relative="1" as="geometry">
            <mxPoint x="2795" y="847" as="sourcePoint" />
            <mxPoint x="3054.9999999999995" y="847" as="targetPoint" />
          </mxGeometry>
        </mxCell>
        <mxCell id="nHt42p3JpCVHXGXA-LoF-15" value="&lt;div style=&quot;text-align: left;&quot;&gt;&lt;span style=&quot;background-color: transparent;&quot;&gt;включить нумерацию всех строк&lt;/span&gt;&lt;/div&gt;" style="html=1;verticalAlign=bottom;startArrow=oval;endArrow=block;startSize=8;curved=0;rounded=0;fontColor=default;labelBackgroundColor=none;" edge="1" parent="1">
          <mxGeometry relative="1" as="geometry">
            <mxPoint x="2795" y="986" as="sourcePoint" />
            <mxPoint x="3054.9999999999995" y="986" as="targetPoint" />
          </mxGeometry>
        </mxCell>
        <mxCell id="nHt42p3JpCVHXGXA-LoF-16" value="&lt;span style=&quot;color: rgb(0, 0, 0); text-align: left; background-color: rgb(251, 251, 251);&quot;&gt;отключить&amp;nbsp;&lt;/span&gt;&lt;span style=&quot;background-color: light-dark(rgb(251, 251, 251), rgb(21, 21, 21)); color: light-dark(rgb(0, 0, 0), rgb(237, 237, 237)); text-align: left;&quot;&gt;интерпретацию&amp;nbsp;&lt;/span&gt;&lt;span style=&quot;background-color: light-dark(rgb(251, 251, 251), rgb(21, 21, 21)); color: light-dark(rgb(0, 0, 0), rgb(237, 237, 237)); text-align: left;&quot;&gt;спецсимволов&lt;/span&gt;" style="html=1;verticalAlign=bottom;startArrow=oval;endArrow=block;startSize=8;curved=0;rounded=0;fontColor=default;labelBackgroundColor=none;" edge="1" parent="1">
          <mxGeometry relative="1" as="geometry">
            <mxPoint x="2055" y="1096" as="sourcePoint" />
            <mxPoint x="2280" y="1096.32" as="targetPoint" />
          </mxGeometry>
        </mxCell>
        <mxCell id="nHt42p3JpCVHXGXA-LoF-17" value="[опция -E]" style="text;html=1;align=center;verticalAlign=middle;resizable=0;points=[];autosize=1;strokeColor=none;fillColor=none;labelBackgroundColor=none;" vertex="1" parent="1">
          <mxGeometry x="1955" y="1066" width="80" height="30" as="geometry" />
        </mxCell>
        <mxCell id="nHt42p3JpCVHXGXA-LoF-18" value="&lt;br style=&quot;font-size: 12px; text-wrap-mode: wrap;&quot;&gt;&lt;span style=&quot;color: rgb(0, 0, 0); text-align: left; background-color: rgb(251, 251, 251);&quot;&gt;включить&amp;nbsp;&lt;/span&gt;&lt;span style=&quot;background-color: light-dark(rgb(251, 251, 251), rgb(21, 21, 21)); color: light-dark(rgb(0, 0, 0), rgb(237, 237, 237)); text-align: left;&quot;&gt;интерпретацию&amp;nbsp;&lt;/span&gt;&lt;span style=&quot;background-color: light-dark(rgb(251, 251, 251), rgb(21, 21, 21)); color: light-dark(rgb(0, 0, 0), rgb(237, 237, 237)); text-align: left;&quot;&gt;спецсимволов&lt;/span&gt;" style="html=1;verticalAlign=bottom;startArrow=oval;endArrow=block;startSize=8;curved=0;rounded=0;fontColor=default;labelBackgroundColor=none;" edge="1" parent="1">
          <mxGeometry relative="1" as="geometry">
            <mxPoint x="2055" y="1026" as="sourcePoint" />
            <mxPoint x="2280" y="1026.32" as="targetPoint" />
          </mxGeometry>
        </mxCell>
        <mxCell id="nHt42p3JpCVHXGXA-LoF-19" value="&lt;span style=&quot;text-align: left; background-color: rgb(255, 255, 255);&quot;&gt;убрать переводы&amp;nbsp;&lt;/span&gt;&lt;span style=&quot;text-align: left; background-color: transparent; color: light-dark(rgb(0, 0, 0), rgb(255, 255, 255));&quot;&gt;строки&lt;/span&gt;" style="html=1;verticalAlign=bottom;startArrow=oval;endArrow=block;startSize=8;curved=0;rounded=0;fontColor=default;labelBackgroundColor=none;" edge="1" parent="1">
          <mxGeometry relative="1" as="geometry">
            <mxPoint x="2055" y="963.41" as="sourcePoint" />
            <mxPoint x="2280" y="963.41" as="targetPoint" />
          </mxGeometry>
        </mxCell>
        <mxCell id="nHt42p3JpCVHXGXA-LoF-20" value="" style="rounded=0;whiteSpace=wrap;html=1;fillColor=none;labelBackgroundColor=none;" vertex="1" parent="1">
          <mxGeometry x="1830" y="244" width="290" height="65" as="geometry" />
        </mxCell>
        <mxCell id="nHt42p3JpCVHXGXA-LoF-21" value="Система: Bash" style="shape=umlLifeline;perimeter=lifelinePerimeter;whiteSpace=wrap;html=1;container=1;dropTarget=0;collapsible=0;recursiveResize=0;outlineConnect=0;portConstraint=eastwest;newEdgeStyle={&quot;edgeStyle&quot;:&quot;elbowEdgeStyle&quot;,&quot;elbow&quot;:&quot;vertical&quot;,&quot;curved&quot;:0,&quot;rounded&quot;:0};labelBackgroundColor=none;" vertex="1" parent="1">
          <mxGeometry x="2015" y="54" width="100" height="275" as="geometry" />
        </mxCell>
        <mxCell id="nHt42p3JpCVHXGXA-LoF-22" value="" style="html=1;points=[[0,0,0,0,5],[0,1,0,0,-5],[1,0,0,0,5],[1,1,0,0,-5]];perimeter=orthogonalPerimeter;outlineConnect=0;targetShapes=umlLifeline;portConstraint=eastwest;newEdgeStyle={&quot;curved&quot;:0,&quot;rounded&quot;:0};labelBackgroundColor=none;" vertex="1" parent="nHt42p3JpCVHXGXA-LoF-21">
          <mxGeometry x="45" y="65" width="10" height="180" as="geometry" />
        </mxCell>
        <mxCell id="nHt42p3JpCVHXGXA-LoF-23" value="" style="shape=umlLifeline;perimeter=lifelinePerimeter;whiteSpace=wrap;html=1;container=1;dropTarget=0;collapsible=0;recursiveResize=0;outlineConnect=0;portConstraint=eastwest;newEdgeStyle={&quot;curved&quot;:0,&quot;rounded&quot;:0};participant=umlActor;labelBackgroundColor=none;" vertex="1" parent="1">
          <mxGeometry x="1850" y="54" width="20" height="275" as="geometry" />
        </mxCell>
        <mxCell id="nHt42p3JpCVHXGXA-LoF-24" value="Команда exit" style="shape=umlFrame;whiteSpace=wrap;html=1;pointerEvents=0;width=90;height=30;labelBackgroundColor=none;" vertex="1" parent="1">
          <mxGeometry x="1810" y="-1" width="340" height="340" as="geometry" />
        </mxCell>
        <mxCell id="nHt42p3JpCVHXGXA-LoF-25" value="alt" style="shape=umlFrame;whiteSpace=wrap;html=1;pointerEvents=0;width=40;height=20;labelBackgroundColor=none;" vertex="1" parent="1">
          <mxGeometry x="1830" y="144" width="290" height="100" as="geometry" />
        </mxCell>
        <mxCell id="nHt42p3JpCVHXGXA-LoF-26" value="[без кода возврата]" style="text;html=1;align=center;verticalAlign=middle;resizable=0;points=[];autosize=1;strokeColor=none;fillColor=none;labelBackgroundColor=none;" vertex="1" parent="1">
          <mxGeometry x="1860" y="144" width="130" height="30" as="geometry" />
        </mxCell>
        <mxCell id="nHt42p3JpCVHXGXA-LoF-27" value="&amp;nbsp;код завершения работы&amp;nbsp;&lt;div&gt;последней команды&lt;/div&gt;" style="html=1;verticalAlign=bottom;endArrow=open;dashed=1;endSize=8;curved=0;rounded=0;exitX=0;exitY=1;exitDx=0;exitDy=-5;labelBackgroundColor=none;fontColor=default;" edge="1" parent="1">
          <mxGeometry relative="1" as="geometry">
            <mxPoint x="1860.0007692307695" y="214" as="targetPoint" />
            <mxPoint x="2060.27" y="214" as="sourcePoint" />
          </mxGeometry>
        </mxCell>
        <mxCell id="nHt42p3JpCVHXGXA-LoF-28" value="[указан код возврата]" style="text;html=1;align=center;verticalAlign=middle;resizable=0;points=[];autosize=1;strokeColor=none;fillColor=none;labelBackgroundColor=default;" vertex="1" parent="1">
          <mxGeometry x="1840" y="244" width="140" height="30" as="geometry" />
        </mxCell>
        <mxCell id="nHt42p3JpCVHXGXA-LoF-29" value="код возврата" style="html=1;verticalAlign=bottom;endArrow=open;dashed=1;endSize=8;curved=0;rounded=0;exitX=0;exitY=1;exitDx=0;exitDy=-5;labelBackgroundColor=none;fontColor=default;" edge="1" parent="1" source="nHt42p3JpCVHXGXA-LoF-22">
          <mxGeometry relative="1" as="geometry">
            <mxPoint x="1859.7307692307695" y="294" as="targetPoint" />
          </mxGeometry>
        </mxCell>
        <mxCell id="nHt42p3JpCVHXGXA-LoF-30" value="exit [код возврата]" style="html=1;verticalAlign=bottom;endArrow=block;curved=0;rounded=0;labelBackgroundColor=none;fontColor=default;" edge="1" parent="1">
          <mxGeometry relative="1" as="geometry">
            <mxPoint x="1860.0007692307695" y="133.23" as="sourcePoint" />
            <mxPoint x="2060.27" y="133.23" as="targetPoint" />
          </mxGeometry>
        </mxCell>
        <mxCell id="nHt42p3JpCVHXGXA-LoF-31" value="Команда pwd" style="shape=umlFrame;whiteSpace=wrap;html=1;pointerEvents=0;width=90;height=30;labelBackgroundColor=none;" vertex="1" parent="1">
          <mxGeometry x="1810" y="349" width="400" height="340" as="geometry" />
        </mxCell>
        <mxCell id="nHt42p3JpCVHXGXA-LoF-32" value=":Pwd" style="shape=umlLifeline;perimeter=lifelinePerimeter;whiteSpace=wrap;html=1;container=1;dropTarget=0;collapsible=0;recursiveResize=0;outlineConnect=0;portConstraint=eastwest;newEdgeStyle={&quot;edgeStyle&quot;:&quot;elbowEdgeStyle&quot;,&quot;elbow&quot;:&quot;vertical&quot;,&quot;curved&quot;:0,&quot;rounded&quot;:0};labelBackgroundColor=none;" vertex="1" parent="1">
          <mxGeometry x="2090" y="399" width="100" height="280" as="geometry" />
        </mxCell>
        <mxCell id="nHt42p3JpCVHXGXA-LoF-33" value="&lt;div&gt;директория из переменной&amp;nbsp;&lt;span style=&quot;background-color: light-dark(#ffffff, var(--ge-dark-color, #121212)); color: light-dark(rgb(0, 0, 0), rgb(255, 255, 255));&quot;&gt;окружения&lt;/span&gt;&lt;/div&gt;" style="html=1;verticalAlign=bottom;endArrow=open;dashed=1;endSize=8;curved=0;rounded=0;labelBackgroundColor=none;fontColor=default;" edge="1" parent="nHt42p3JpCVHXGXA-LoF-32">
          <mxGeometry relative="1" as="geometry">
            <mxPoint x="-210.2692307692305" y="142" as="targetPoint" />
            <mxPoint x="49.5" y="142" as="sourcePoint" />
          </mxGeometry>
        </mxCell>
        <mxCell id="nHt42p3JpCVHXGXA-LoF-34" value="" style="html=1;points=[[0,0,0,0,5],[0,1,0,0,-5],[1,0,0,0,5],[1,1,0,0,-5]];perimeter=orthogonalPerimeter;outlineConnect=0;targetShapes=umlLifeline;portConstraint=eastwest;newEdgeStyle={&quot;curved&quot;:0,&quot;rounded&quot;:0};labelBackgroundColor=none;" vertex="1" parent="nHt42p3JpCVHXGXA-LoF-32">
          <mxGeometry x="45" y="69" width="10" height="190" as="geometry" />
        </mxCell>
        <mxCell id="nHt42p3JpCVHXGXA-LoF-35" value="[вызвана без опций или с опцией -L]" style="text;html=1;align=center;verticalAlign=middle;resizable=0;points=[];autosize=1;strokeColor=none;fillColor=none;labelBackgroundColor=default;" vertex="1" parent="1">
          <mxGeometry x="1860" y="486" width="230" height="30" as="geometry" />
        </mxCell>
        <mxCell id="nHt42p3JpCVHXGXA-LoF-36" value="Команда echo" style="shape=umlFrame;whiteSpace=wrap;html=1;pointerEvents=0;width=90;height=30;labelBackgroundColor=none;" vertex="1" parent="1">
          <mxGeometry x="1810" y="699" width="710" height="530" as="geometry" />
        </mxCell>
        <mxCell id="nHt42p3JpCVHXGXA-LoF-37" value=":Echo" style="shape=umlLifeline;perimeter=lifelinePerimeter;whiteSpace=wrap;html=1;container=1;dropTarget=0;collapsible=0;recursiveResize=0;outlineConnect=0;portConstraint=eastwest;newEdgeStyle={&quot;edgeStyle&quot;:&quot;elbowEdgeStyle&quot;,&quot;elbow&quot;:&quot;vertical&quot;,&quot;curved&quot;:0,&quot;rounded&quot;:0};labelBackgroundColor=none;" vertex="1" parent="1">
          <mxGeometry x="2005" y="750" width="100" height="449" as="geometry" />
        </mxCell>
        <mxCell id="nHt42p3JpCVHXGXA-LoF-38" value="" style="html=1;points=[[0,0,0,0,5],[0,1,0,0,-5],[1,0,0,0,5],[1,1,0,0,-5]];perimeter=orthogonalPerimeter;outlineConnect=0;targetShapes=umlLifeline;portConstraint=eastwest;newEdgeStyle={&quot;curved&quot;:0,&quot;rounded&quot;:0};labelBackgroundColor=none;" vertex="1" parent="nHt42p3JpCVHXGXA-LoF-37">
          <mxGeometry x="45" y="100" width="10" height="320" as="geometry" />
        </mxCell>
        <mxCell id="nHt42p3JpCVHXGXA-LoF-39" value="echo [options] [arguments]" style="html=1;verticalAlign=bottom;endArrow=block;curved=0;rounded=0;entryX=0;entryY=0;entryDx=0;entryDy=5;labelBackgroundColor=none;fontColor=default;" edge="1" parent="1" source="nHt42p3JpCVHXGXA-LoF-73" target="nHt42p3JpCVHXGXA-LoF-38">
          <mxGeometry relative="1" as="geometry">
            <mxPoint x="1869.3888888888887" y="855" as="sourcePoint" />
          </mxGeometry>
        </mxCell>
        <mxCell id="nHt42p3JpCVHXGXA-LoF-40" value="строка из аргументов" style="html=1;verticalAlign=bottom;endArrow=open;dashed=1;endSize=8;curved=0;rounded=0;exitX=0;exitY=1;exitDx=0;exitDy=-5;labelBackgroundColor=none;fontColor=default;" edge="1" parent="1" source="nHt42p3JpCVHXGXA-LoF-38" target="nHt42p3JpCVHXGXA-LoF-73">
          <mxGeometry relative="1" as="geometry">
            <mxPoint x="1869.3888888888887" y="1165" as="targetPoint" />
          </mxGeometry>
        </mxCell>
        <mxCell id="nHt42p3JpCVHXGXA-LoF-41" value="[опция -n]" style="text;html=1;align=center;verticalAlign=middle;resizable=0;points=[];autosize=1;strokeColor=none;fillColor=none;labelBackgroundColor=none;" vertex="1" parent="1">
          <mxGeometry x="1955" y="926" width="80" height="30" as="geometry" />
        </mxCell>
        <mxCell id="nHt42p3JpCVHXGXA-LoF-42" value="[опция -e]" style="text;html=1;align=center;verticalAlign=middle;resizable=0;points=[];autosize=1;strokeColor=none;fillColor=none;labelBackgroundColor=none;" vertex="1" parent="1">
          <mxGeometry x="1955" y="996" width="80" height="30" as="geometry" />
        </mxCell>
        <mxCell id="nHt42p3JpCVHXGXA-LoF-43" value=":Строка" style="shape=umlLifeline;perimeter=lifelinePerimeter;whiteSpace=wrap;html=1;container=1;dropTarget=0;collapsible=0;recursiveResize=0;outlineConnect=0;portConstraint=eastwest;newEdgeStyle={&quot;curved&quot;:0,&quot;rounded&quot;:0};labelBackgroundColor=none;" vertex="1" parent="1">
          <mxGeometry x="2235" y="749" width="100" height="450" as="geometry" />
        </mxCell>
        <mxCell id="nHt42p3JpCVHXGXA-LoF-44" value="" style="html=1;points=[[0,0,0,0,5],[0,1,0,0,-5],[1,0,0,0,5],[1,1,0,0,-5]];perimeter=orthogonalPerimeter;outlineConnect=0;targetShapes=umlLifeline;portConstraint=eastwest;newEdgeStyle={&quot;curved&quot;:0,&quot;rounded&quot;:0};labelBackgroundColor=none;" vertex="1" parent="nHt42p3JpCVHXGXA-LoF-43">
          <mxGeometry x="45" y="150" width="10" height="260" as="geometry" />
        </mxCell>
        <mxCell id="nHt42p3JpCVHXGXA-LoF-45" value="строка из аргументов" style="html=1;verticalAlign=bottom;endArrow=open;dashed=1;endSize=8;curved=0;rounded=0;exitX=0;exitY=1;exitDx=0;exitDy=-5;fontColor=default;labelBackgroundColor=none;" edge="1" parent="1" source="nHt42p3JpCVHXGXA-LoF-44" target="nHt42p3JpCVHXGXA-LoF-38">
          <mxGeometry relative="1" as="geometry">
            <mxPoint x="2055" y="1254" as="targetPoint" />
          </mxGeometry>
        </mxCell>
        <mxCell id="nHt42p3JpCVHXGXA-LoF-46" value="opt" style="shape=umlFrame;whiteSpace=wrap;html=1;pointerEvents=0;width=40;height=22;labelBackgroundColor=none;" vertex="1" parent="1">
          <mxGeometry x="1925" y="929" width="430" height="56" as="geometry" />
        </mxCell>
        <mxCell id="nHt42p3JpCVHXGXA-LoF-47" value="opt" style="shape=umlFrame;whiteSpace=wrap;html=1;pointerEvents=0;width=40;height=22;labelBackgroundColor=none;" vertex="1" parent="1">
          <mxGeometry x="1925" y="995" width="430" height="60" as="geometry" />
        </mxCell>
        <mxCell id="nHt42p3JpCVHXGXA-LoF-48" value="opt" style="shape=umlFrame;whiteSpace=wrap;html=1;pointerEvents=0;width=40;height=22;labelBackgroundColor=none;" vertex="1" parent="1">
          <mxGeometry x="1925" y="1065" width="430" height="60" as="geometry" />
        </mxCell>
        <mxCell id="nHt42p3JpCVHXGXA-LoF-49" value="&lt;div style=&quot;text-align: left;&quot;&gt;включить нумерацию непустых строк&lt;/div&gt;" style="html=1;verticalAlign=bottom;startArrow=oval;endArrow=block;startSize=8;curved=0;rounded=0;fontColor=default;labelBackgroundColor=none;" edge="1" parent="1">
          <mxGeometry relative="1" as="geometry">
            <mxPoint x="2795" y="916" as="sourcePoint" />
            <mxPoint x="3054.9999999999995" y="916" as="targetPoint" />
          </mxGeometry>
        </mxCell>
        <mxCell id="nHt42p3JpCVHXGXA-LoF-50" value="[опция -b]" style="text;html=1;align=center;verticalAlign=middle;resizable=0;points=[];autosize=1;strokeColor=none;fillColor=none;labelBackgroundColor=none;" vertex="1" parent="1">
          <mxGeometry x="2695" y="886" width="80" height="30" as="geometry" />
        </mxCell>
        <mxCell id="nHt42p3JpCVHXGXA-LoF-51" value="&lt;div style=&quot;text-align: left;&quot;&gt;&lt;span style=&quot;background-color: transparent;&quot;&gt;пометить табуляции комбинацией ^I&lt;/span&gt;&lt;/div&gt;" style="html=1;verticalAlign=bottom;startArrow=oval;endArrow=block;startSize=8;curved=0;rounded=0;fontColor=default;labelBackgroundColor=none;" edge="1" parent="1">
          <mxGeometry relative="1" as="geometry">
            <mxPoint x="2795" y="705" as="sourcePoint" />
            <mxPoint x="3054.9999999999995" y="705" as="targetPoint" />
          </mxGeometry>
        </mxCell>
        <mxCell id="nHt42p3JpCVHXGXA-LoF-52" value="Команда cat" style="shape=umlFrame;whiteSpace=wrap;html=1;pointerEvents=0;width=90;height=30;labelBackgroundColor=none;" vertex="1" parent="1">
          <mxGeometry x="2550" y="10" width="980" height="1120" as="geometry" />
        </mxCell>
        <mxCell id="nHt42p3JpCVHXGXA-LoF-53" value=":Cat" style="shape=umlLifeline;perimeter=lifelinePerimeter;whiteSpace=wrap;html=1;container=1;dropTarget=0;collapsible=0;recursiveResize=0;outlineConnect=0;portConstraint=eastwest;newEdgeStyle={&quot;edgeStyle&quot;:&quot;elbowEdgeStyle&quot;,&quot;elbow&quot;:&quot;vertical&quot;,&quot;curved&quot;:0,&quot;rounded&quot;:0};labelBackgroundColor=none;" vertex="1" parent="1">
          <mxGeometry x="2745" y="61" width="100" height="1049" as="geometry" />
        </mxCell>
        <mxCell id="nHt42p3JpCVHXGXA-LoF-54" value="" style="html=1;points=[[0,0,0,0,5],[0,1,0,0,-5],[1,0,0,0,5],[1,1,0,0,-5]];perimeter=orthogonalPerimeter;outlineConnect=0;targetShapes=umlLifeline;portConstraint=eastwest;newEdgeStyle={&quot;curved&quot;:0,&quot;rounded&quot;:0};labelBackgroundColor=none;" vertex="1" parent="nHt42p3JpCVHXGXA-LoF-53">
          <mxGeometry x="45" y="100" width="10" height="920" as="geometry" />
        </mxCell>
        <mxCell id="nHt42p3JpCVHXGXA-LoF-55" value="cat [options] [arguments]" style="html=1;verticalAlign=bottom;endArrow=block;curved=0;rounded=0;entryX=0;entryY=0;entryDx=0;entryDy=5;labelBackgroundColor=none;fontColor=default;" edge="1" parent="1" target="nHt42p3JpCVHXGXA-LoF-54">
          <mxGeometry relative="1" as="geometry">
            <mxPoint x="2609.3888888888887" y="166.0000000000009" as="sourcePoint" />
          </mxGeometry>
        </mxCell>
        <mxCell id="nHt42p3JpCVHXGXA-LoF-56" value="&lt;span style=&quot;background-color: rgb(255, 255, 255);&quot;&gt;результирующая строка&lt;/span&gt;" style="html=1;verticalAlign=bottom;endArrow=open;dashed=1;endSize=8;curved=0;rounded=0;exitX=0;exitY=1;exitDx=0;exitDy=-5;labelBackgroundColor=none;fontColor=default;" edge="1" parent="1" source="nHt42p3JpCVHXGXA-LoF-54" target="nHt42p3JpCVHXGXA-LoF-74">
          <mxGeometry relative="1" as="geometry">
            <mxPoint x="2609.3888888888887" y="645.9999999999995" as="targetPoint" />
          </mxGeometry>
        </mxCell>
        <mxCell id="nHt42p3JpCVHXGXA-LoF-57" value="[опция -T]" style="text;html=1;align=center;verticalAlign=middle;resizable=0;points=[];autosize=1;strokeColor=none;fillColor=none;labelBackgroundColor=none;" vertex="1" parent="1">
          <mxGeometry x="2695" y="676" width="80" height="30" as="geometry" />
        </mxCell>
        <mxCell id="nHt42p3JpCVHXGXA-LoF-58" value=":Строка" style="shape=umlLifeline;perimeter=lifelinePerimeter;whiteSpace=wrap;html=1;container=1;dropTarget=0;collapsible=0;recursiveResize=0;outlineConnect=0;portConstraint=eastwest;newEdgeStyle={&quot;curved&quot;:0,&quot;rounded&quot;:0};labelBackgroundColor=none;" vertex="1" parent="1">
          <mxGeometry x="3010" y="61" width="100" height="1049" as="geometry" />
        </mxCell>
        <mxCell id="nHt42p3JpCVHXGXA-LoF-59" value="" style="html=1;points=[[0,0,0,0,5],[0,1,0,0,-5],[1,0,0,0,5],[1,1,0,0,-5]];perimeter=orthogonalPerimeter;outlineConnect=0;targetShapes=umlLifeline;portConstraint=eastwest;newEdgeStyle={&quot;curved&quot;:0,&quot;rounded&quot;:0};labelBackgroundColor=none;" vertex="1" parent="nHt42p3JpCVHXGXA-LoF-58">
          <mxGeometry x="45" y="210" width="10" height="40" as="geometry" />
        </mxCell>
        <mxCell id="nHt42p3JpCVHXGXA-LoF-60" value="" style="html=1;points=[[0,0,0,0,5],[0,1,0,0,-5],[1,0,0,0,5],[1,1,0,0,-5]];perimeter=orthogonalPerimeter;outlineConnect=0;targetShapes=umlLifeline;portConstraint=eastwest;newEdgeStyle={&quot;curved&quot;:0,&quot;rounded&quot;:0};" vertex="1" parent="nHt42p3JpCVHXGXA-LoF-58">
          <mxGeometry x="45" y="283.5" width="10" height="706.5" as="geometry" />
        </mxCell>
        <mxCell id="nHt42p3JpCVHXGXA-LoF-61" value="opt" style="shape=umlFrame;whiteSpace=wrap;html=1;pointerEvents=0;width=40;height=22;labelBackgroundColor=none;" vertex="1" parent="1">
          <mxGeometry x="2665" y="675" width="430" height="60" as="geometry" />
        </mxCell>
        <mxCell id="nHt42p3JpCVHXGXA-LoF-62" value="opt" style="shape=umlFrame;whiteSpace=wrap;html=1;pointerEvents=0;width=40;height=22;labelBackgroundColor=none;" vertex="1" parent="1">
          <mxGeometry x="2665" y="885" width="430" height="60" as="geometry" />
        </mxCell>
        <mxCell id="nHt42p3JpCVHXGXA-LoF-63" value="[опция -n]" style="text;html=1;align=center;verticalAlign=middle;resizable=0;points=[];autosize=1;strokeColor=none;fillColor=none;labelBackgroundColor=none;" vertex="1" parent="1">
          <mxGeometry x="2695" y="956" width="80" height="30" as="geometry" />
        </mxCell>
        <mxCell id="nHt42p3JpCVHXGXA-LoF-64" value="opt" style="shape=umlFrame;whiteSpace=wrap;html=1;pointerEvents=0;width=40;height=22;labelBackgroundColor=none;" vertex="1" parent="1">
          <mxGeometry x="2665" y="955" width="430" height="60" as="geometry" />
        </mxCell>
        <mxCell id="nHt42p3JpCVHXGXA-LoF-65" value="[опция -s]" style="text;html=1;align=center;verticalAlign=middle;resizable=0;points=[];autosize=1;strokeColor=none;fillColor=none;labelBackgroundColor=none;" vertex="1" parent="1">
          <mxGeometry x="2695" y="748" width="80" height="30" as="geometry" />
        </mxCell>
        <mxCell id="nHt42p3JpCVHXGXA-LoF-66" value="opt" style="shape=umlFrame;whiteSpace=wrap;html=1;pointerEvents=0;width=40;height=22;labelBackgroundColor=none;" vertex="1" parent="1">
          <mxGeometry x="2665" y="747" width="430" height="60" as="geometry" />
        </mxCell>
        <mxCell id="nHt42p3JpCVHXGXA-LoF-67" value="[опция -E]" style="text;html=1;align=center;verticalAlign=middle;resizable=0;points=[];autosize=1;strokeColor=none;fillColor=none;labelBackgroundColor=none;" vertex="1" parent="1">
          <mxGeometry x="2695" y="818" width="80" height="30" as="geometry" />
        </mxCell>
        <mxCell id="nHt42p3JpCVHXGXA-LoF-68" value="opt" style="shape=umlFrame;whiteSpace=wrap;html=1;pointerEvents=0;width=40;height=22;labelBackgroundColor=none;" vertex="1" parent="1">
          <mxGeometry x="2665" y="817" width="430" height="60" as="geometry" />
        </mxCell>
        <mxCell id="nHt42p3JpCVHXGXA-LoF-69" value="[опция -P]" style="text;html=1;align=center;verticalAlign=middle;resizable=0;points=[];autosize=1;strokeColor=none;fillColor=none;labelBackgroundColor=default;" vertex="1" parent="1">
          <mxGeometry x="1830" y="568" width="80" height="30" as="geometry" />
        </mxCell>
        <mxCell id="nHt42p3JpCVHXGXA-LoF-70" value="alt" style="shape=umlFrame;whiteSpace=wrap;html=1;pointerEvents=0;width=40;height=22;labelBackgroundColor=none;" vertex="1" parent="1">
          <mxGeometry x="1830" y="486" width="340" height="82" as="geometry" />
        </mxCell>
        <mxCell id="nHt42p3JpCVHXGXA-LoF-71" value="реальный путь без символических ссылок" style="html=1;verticalAlign=bottom;endArrow=open;dashed=1;endSize=8;curved=0;rounded=0;exitX=0;exitY=1;exitDx=0;exitDy=-5;labelBackgroundColor=none;fontColor=default;" edge="1" parent="1">
          <mxGeometry relative="1" as="geometry">
            <mxPoint x="1879.7307692307695" y="618" as="targetPoint" />
            <mxPoint x="2135" y="618" as="sourcePoint" />
          </mxGeometry>
        </mxCell>
        <mxCell id="nHt42p3JpCVHXGXA-LoF-72" value="pwd [опция]" style="html=1;verticalAlign=bottom;endArrow=block;curved=0;rounded=0;entryX=0;entryY=0;entryDx=0;entryDy=5;labelBackgroundColor=none;fontColor=default;" edge="1" parent="1" target="nHt42p3JpCVHXGXA-LoF-34">
          <mxGeometry relative="1" as="geometry">
            <mxPoint x="1879.7307692307695" y="473.00000000000034" as="sourcePoint" />
          </mxGeometry>
        </mxCell>
        <mxCell id="nHt42p3JpCVHXGXA-LoF-73" value="Система: Bash" style="shape=umlLifeline;perimeter=lifelinePerimeter;whiteSpace=wrap;html=1;container=1;dropTarget=0;collapsible=0;recursiveResize=0;outlineConnect=0;portConstraint=eastwest;newEdgeStyle={&quot;curved&quot;:0,&quot;rounded&quot;:0};" vertex="1" parent="1">
          <mxGeometry x="1820" y="750" width="100" height="449" as="geometry" />
        </mxCell>
        <mxCell id="nHt42p3JpCVHXGXA-LoF-74" value="Система: Bash" style="shape=umlLifeline;perimeter=lifelinePerimeter;whiteSpace=wrap;html=1;container=1;dropTarget=0;collapsible=0;recursiveResize=0;outlineConnect=0;portConstraint=eastwest;newEdgeStyle={&quot;curved&quot;:0,&quot;rounded&quot;:0};" vertex="1" parent="1">
          <mxGeometry x="2560" y="61" width="100" height="1049" as="geometry" />
        </mxCell>
        <mxCell id="nHt42p3JpCVHXGXA-LoF-75" value=":Файл" style="shape=umlLifeline;perimeter=lifelinePerimeter;whiteSpace=wrap;html=1;container=1;dropTarget=0;collapsible=0;recursiveResize=0;outlineConnect=0;portConstraint=eastwest;newEdgeStyle={&quot;curved&quot;:0,&quot;rounded&quot;:0};labelBackgroundColor=none;" vertex="1" parent="1">
          <mxGeometry x="3370" y="61" width="100" height="1049" as="geometry" />
        </mxCell>
        <mxCell id="nHt42p3JpCVHXGXA-LoF-76" value="" style="html=1;points=[[0,0,0,0,5],[0,1,0,0,-5],[1,0,0,0,5],[1,1,0,0,-5]];perimeter=orthogonalPerimeter;outlineConnect=0;targetShapes=umlLifeline;portConstraint=eastwest;newEdgeStyle={&quot;curved&quot;:0,&quot;rounded&quot;:0};" vertex="1" parent="nHt42p3JpCVHXGXA-LoF-75">
          <mxGeometry x="45" y="363.5" width="10" height="51" as="geometry" />
        </mxCell>
        <mxCell id="nHt42p3JpCVHXGXA-LoF-77" value="loop" style="shape=umlFrame;whiteSpace=wrap;html=1;pointerEvents=0;width=40;height=22;labelBackgroundColor=none;" vertex="1" parent="1">
          <mxGeometry x="2580" y="390" width="890" height="140" as="geometry" />
        </mxCell>
        <mxCell id="nHt42p3JpCVHXGXA-LoF-78" value="[обработаны не все файлы из аргументов]" style="text;html=1;align=center;verticalAlign=middle;resizable=0;points=[];autosize=1;strokeColor=none;fillColor=none;labelBackgroundColor=default;" vertex="1" parent="1">
          <mxGeometry x="2615" y="390" width="260" height="30" as="geometry" />
        </mxCell>
        <mxCell id="nHt42p3JpCVHXGXA-LoF-79" value="[не указаны аргументы]" style="text;html=1;align=center;verticalAlign=middle;resizable=0;points=[];autosize=1;strokeColor=none;fillColor=none;labelBackgroundColor=default;" vertex="1" parent="1">
          <mxGeometry x="2570" y="550" width="150" height="30" as="geometry" />
        </mxCell>
        <mxCell id="nHt42p3JpCVHXGXA-LoF-80" value="[ввод данных]" style="html=1;verticalAlign=bottom;endArrow=block;curved=0;rounded=0;labelBackgroundColor=none;fontColor=default;" edge="1" parent="1">
          <mxGeometry x="-0.2157" y="1" relative="1" as="geometry">
            <mxPoint x="2608.8333333333335" y="599.5" as="sourcePoint" />
            <mxPoint x="2790" y="599.5" as="targetPoint" />
            <mxPoint as="offset" />
          </mxGeometry>
        </mxCell>
        <mxCell id="nHt42p3JpCVHXGXA-LoF-81" value=":Variables" style="shape=umlLifeline;perimeter=lifelinePerimeter;whiteSpace=wrap;html=1;container=1;dropTarget=0;collapsible=0;recursiveResize=0;outlineConnect=0;portConstraint=eastwest;newEdgeStyle={&quot;edgeStyle&quot;:&quot;elbowEdgeStyle&quot;,&quot;elbow&quot;:&quot;vertical&quot;,&quot;curved&quot;:0,&quot;rounded&quot;:0};labelBackgroundColor=none;" vertex="1" parent="1">
          <mxGeometry x="2390" y="749" width="100" height="449" as="geometry" />
        </mxCell>
        <mxCell id="nHt42p3JpCVHXGXA-LoF-82" value="" style="html=1;points=[[0,0,0,0,5],[0,1,0,0,-5],[1,0,0,0,5],[1,1,0,0,-5]];perimeter=orthogonalPerimeter;outlineConnect=0;targetShapes=umlLifeline;portConstraint=eastwest;newEdgeStyle={&quot;curved&quot;:0,&quot;rounded&quot;:0};labelBackgroundColor=none;" vertex="1" parent="nHt42p3JpCVHXGXA-LoF-81">
          <mxGeometry x="45" y="110" width="10" height="70" as="geometry" />
        </mxCell>
        <mxCell id="nHt42p3JpCVHXGXA-LoF-83" value="&lt;span style=&quot;color: rgb(26, 26, 26); text-align: left;&quot;&gt;привести&amp;nbsp;&lt;/span&gt;&lt;span style=&quot;color: rgb(26, 26, 26); text-align: left;&quot;&gt;аргументы&amp;nbsp;&lt;/span&gt;&lt;span style=&quot;color: rgb(26, 26, 26); text-align: left;&quot;&gt;к строке&lt;/span&gt;" style="html=1;verticalAlign=bottom;endArrow=block;curved=0;rounded=0;fontColor=default;labelBackgroundColor=default;" edge="1" parent="1">
          <mxGeometry relative="1" as="geometry">
            <mxPoint x="2059.9999999999995" y="869" as="sourcePoint" />
            <mxPoint x="2435" y="869" as="targetPoint" />
          </mxGeometry>
        </mxCell>
        <mxCell id="nHt42p3JpCVHXGXA-LoF-84" value="строка из аргументов" style="html=1;verticalAlign=bottom;endArrow=open;dashed=1;endSize=8;curved=0;rounded=0;fontColor=default;labelBackgroundColor=none;entryX=1;entryY=0;entryDx=0;entryDy=5;entryPerimeter=0;" edge="1" parent="1">
          <mxGeometry relative="1" as="geometry">
            <mxPoint x="2289.9999999999995" y="915" as="targetPoint" />
            <mxPoint x="2435" y="915" as="sourcePoint" />
          </mxGeometry>
        </mxCell>
        <mxCell id="nHt42p3JpCVHXGXA-LoF-85" value=":Variables" style="shape=umlLifeline;perimeter=lifelinePerimeter;whiteSpace=wrap;html=1;container=1;dropTarget=0;collapsible=0;recursiveResize=0;outlineConnect=0;portConstraint=eastwest;newEdgeStyle={&quot;edgeStyle&quot;:&quot;elbowEdgeStyle&quot;,&quot;elbow&quot;:&quot;vertical&quot;,&quot;curved&quot;:0,&quot;rounded&quot;:0};labelBackgroundColor=none;" vertex="1" parent="1">
          <mxGeometry x="3200" y="61" width="100" height="1049" as="geometry" />
        </mxCell>
        <mxCell id="nHt42p3JpCVHXGXA-LoF-86" value="" style="html=1;points=[[0,0,0,0,5],[0,1,0,0,-5],[1,0,0,0,5],[1,1,0,0,-5]];perimeter=orthogonalPerimeter;outlineConnect=0;targetShapes=umlLifeline;portConstraint=eastwest;newEdgeStyle={&quot;curved&quot;:0,&quot;rounded&quot;:0};labelBackgroundColor=none;" vertex="1" parent="nHt42p3JpCVHXGXA-LoF-85">
          <mxGeometry x="45" y="163" width="10" height="57" as="geometry" />
        </mxCell>
        <mxCell id="nHt42p3JpCVHXGXA-LoF-87" value="&lt;span style=&quot;color: rgb(26, 26, 26); text-align: left;&quot;&gt;привести&amp;nbsp;&lt;/span&gt;&lt;span style=&quot;color: rgb(26, 26, 26); text-align: left;&quot;&gt;аргументы&amp;nbsp;&lt;/span&gt;&lt;span style=&quot;color: rgb(26, 26, 26); text-align: left;&quot;&gt;к строке&lt;/span&gt;" style="html=1;verticalAlign=bottom;endArrow=block;curved=0;rounded=0;fontColor=default;labelBackgroundColor=default;" edge="1" parent="1" target="nHt42p3JpCVHXGXA-LoF-86">
          <mxGeometry relative="1" as="geometry">
            <mxPoint x="2800" y="233" as="sourcePoint" />
            <mxPoint x="3395" y="230" as="targetPoint" />
            <Array as="points">
              <mxPoint x="3000" y="233" />
            </Array>
          </mxGeometry>
        </mxCell>
        <mxCell id="nHt42p3JpCVHXGXA-LoF-88" value="строка из аргументов" style="html=1;verticalAlign=bottom;endArrow=open;dashed=1;endSize=8;curved=0;rounded=0;fontColor=default;labelBackgroundColor=none;exitX=0;exitY=1;exitDx=0;exitDy=-5;exitPerimeter=0;" edge="1" parent="1" source="nHt42p3JpCVHXGXA-LoF-86" target="nHt42p3JpCVHXGXA-LoF-59">
          <mxGeometry relative="1" as="geometry">
            <mxPoint x="3065" y="289" as="targetPoint" />
            <mxPoint x="3395" y="276" as="sourcePoint" />
          </mxGeometry>
        </mxCell>
        <mxCell id="nHt42p3JpCVHXGXA-LoF-89" value="alt" style="shape=umlFrame;whiteSpace=wrap;html=1;pointerEvents=0;width=40;height=22;labelBackgroundColor=none;" vertex="1" parent="1">
          <mxGeometry x="2565" y="190" width="935" height="360" as="geometry" />
        </mxCell>
        <mxCell id="nHt42p3JpCVHXGXA-LoF-90" value="[указаны аргументы]" style="text;html=1;align=center;verticalAlign=middle;resizable=0;points=[];autosize=1;strokeColor=none;fillColor=none;labelBackgroundColor=default;" vertex="1" parent="1">
          <mxGeometry x="2600" y="190" width="140" height="30" as="geometry" />
        </mxCell>
        <mxCell id="nHt42p3JpCVHXGXA-LoF-91" value="строка из аргументов" style="html=1;verticalAlign=bottom;endArrow=open;dashed=1;endSize=8;curved=0;rounded=0;fontColor=default;labelBackgroundColor=none;" edge="1" parent="1">
          <mxGeometry relative="1" as="geometry">
            <mxPoint x="2800" y="300" as="targetPoint" />
            <mxPoint x="3055" y="300" as="sourcePoint" />
          </mxGeometry>
        </mxCell>
        <mxCell id="nHt42p3JpCVHXGXA-LoF-92" value="открыть файл для чтения" style="html=1;verticalAlign=bottom;endArrow=block;curved=0;rounded=0;entryX=0;entryY=0;entryDx=0;entryDy=5;" edge="1" parent="1" target="nHt42p3JpCVHXGXA-LoF-76">
          <mxGeometry relative="1" as="geometry">
            <mxPoint x="2799.9999999999995" y="429.49999999999955" as="sourcePoint" />
          </mxGeometry>
        </mxCell>
        <mxCell id="nHt42p3JpCVHXGXA-LoF-93" value="содержимое файла" style="html=1;verticalAlign=bottom;endArrow=open;dashed=1;endSize=8;curved=0;rounded=0;exitX=0;exitY=1;exitDx=0;exitDy=-5;" edge="1" parent="1" source="nHt42p3JpCVHXGXA-LoF-76">
          <mxGeometry relative="1" as="geometry">
            <mxPoint x="2799.9999999999995" y="470.49999999999955" as="targetPoint" />
          </mxGeometry>
        </mxCell>
        <mxCell id="nHt42p3JpCVHXGXA-LoF-94" value="результирующая строка" style="html=1;verticalAlign=bottom;endArrow=open;dashed=1;endSize=8;curved=0;rounded=0;exitX=0;exitY=1;exitDx=0;exitDy=-5;" edge="1" parent="1" source="nHt42p3JpCVHXGXA-LoF-60" target="nHt42p3JpCVHXGXA-LoF-54">
          <mxGeometry relative="1" as="geometry">
            <mxPoint x="2985" y="419.5" as="targetPoint" />
          </mxGeometry>
        </mxCell>
        <mxCell id="nHt42p3JpCVHXGXA-LoF-95" value="создать результирующую строку" style="html=1;verticalAlign=bottom;endArrow=block;curved=0;rounded=0;entryX=0;entryY=0;entryDx=0;entryDy=5;" edge="1" parent="1" source="nHt42p3JpCVHXGXA-LoF-54" target="nHt42p3JpCVHXGXA-LoF-60">
          <mxGeometry relative="1" as="geometry">
            <mxPoint x="2985" y="349.5" as="sourcePoint" />
          </mxGeometry>
        </mxCell>
        <mxCell id="nHt42p3JpCVHXGXA-LoF-96" value="добавить содержимое файла" style="html=1;verticalAlign=bottom;endArrow=block;curved=0;rounded=0;" edge="1" parent="1">
          <mxGeometry relative="1" as="geometry">
            <mxPoint x="2799.9999999999995" y="510" as="sourcePoint" />
            <mxPoint x="3054.9999999999995" y="510" as="targetPoint" />
          </mxGeometry>
        </mxCell>
        <mxCell id="nHt42p3JpCVHXGXA-LoF-97" value="создать результирующую строку" style="html=1;verticalAlign=bottom;endArrow=block;curved=0;rounded=0;" edge="1" parent="1">
          <mxGeometry relative="1" as="geometry">
            <mxPoint x="2800" y="616" as="sourcePoint" />
            <mxPoint x="3055" y="616" as="targetPoint" />
          </mxGeometry>
        </mxCell>
        <mxCell id="nHt42p3JpCVHXGXA-LoF-98" value="Команда wc" style="shape=umlFrame;whiteSpace=wrap;html=1;pointerEvents=0;width=90;height=30;labelBackgroundColor=none;" vertex="1" parent="1">
          <mxGeometry x="3550" y="10" width="980" height="1479" as="geometry" />
        </mxCell>
        <mxCell id="nHt42p3JpCVHXGXA-LoF-99" value=":Wc" style="shape=umlLifeline;perimeter=lifelinePerimeter;whiteSpace=wrap;html=1;container=1;dropTarget=0;collapsible=0;recursiveResize=0;outlineConnect=0;portConstraint=eastwest;newEdgeStyle={&quot;edgeStyle&quot;:&quot;elbowEdgeStyle&quot;,&quot;elbow&quot;:&quot;vertical&quot;,&quot;curved&quot;:0,&quot;rounded&quot;:0};labelBackgroundColor=none;" vertex="1" parent="1">
          <mxGeometry x="3745" y="61" width="100" height="1398" as="geometry" />
        </mxCell>
        <mxCell id="nHt42p3JpCVHXGXA-LoF-100" value="" style="html=1;points=[[0,0,0,0,5],[0,1,0,0,-5],[1,0,0,0,5],[1,1,0,0,-5]];perimeter=orthogonalPerimeter;outlineConnect=0;targetShapes=umlLifeline;portConstraint=eastwest;newEdgeStyle={&quot;curved&quot;:0,&quot;rounded&quot;:0};labelBackgroundColor=none;" vertex="1" parent="nHt42p3JpCVHXGXA-LoF-99">
          <mxGeometry x="45" y="100" width="10" height="1250" as="geometry" />
        </mxCell>
        <mxCell id="nHt42p3JpCVHXGXA-LoF-101" value="cat [options] [arguments]" style="html=1;verticalAlign=bottom;endArrow=block;curved=0;rounded=0;entryX=0;entryY=0;entryDx=0;entryDy=5;labelBackgroundColor=none;fontColor=default;" edge="1" parent="1" target="nHt42p3JpCVHXGXA-LoF-100">
          <mxGeometry relative="1" as="geometry">
            <mxPoint x="3609.3888888888887" y="166.0000000000009" as="sourcePoint" />
          </mxGeometry>
        </mxCell>
        <mxCell id="nHt42p3JpCVHXGXA-LoF-102" value="&lt;span style=&quot;background-color: rgb(255, 255, 255);&quot;&gt;результирующая строка&lt;/span&gt;" style="html=1;verticalAlign=bottom;endArrow=open;dashed=1;endSize=8;curved=0;rounded=0;exitX=0;exitY=1;exitDx=0;exitDy=-5;labelBackgroundColor=none;fontColor=default;" edge="1" parent="1">
          <mxGeometry relative="1" as="geometry">
            <mxPoint x="3609.0714285714284" y="888.9999999999959" as="targetPoint" />
            <mxPoint x="3790" y="888.9999999999959" as="sourcePoint" />
          </mxGeometry>
        </mxCell>
        <mxCell id="nHt42p3JpCVHXGXA-LoF-103" value=":Строка" style="shape=umlLifeline;perimeter=lifelinePerimeter;whiteSpace=wrap;html=1;container=1;dropTarget=0;collapsible=0;recursiveResize=0;outlineConnect=0;portConstraint=eastwest;newEdgeStyle={&quot;curved&quot;:0,&quot;rounded&quot;:0};labelBackgroundColor=none;" vertex="1" parent="1">
          <mxGeometry x="4010" y="61" width="100" height="1398" as="geometry" />
        </mxCell>
        <mxCell id="nHt42p3JpCVHXGXA-LoF-104" value="" style="html=1;points=[[0,0,0,0,5],[0,1,0,0,-5],[1,0,0,0,5],[1,1,0,0,-5]];perimeter=orthogonalPerimeter;outlineConnect=0;targetShapes=umlLifeline;portConstraint=eastwest;newEdgeStyle={&quot;curved&quot;:0,&quot;rounded&quot;:0};labelBackgroundColor=none;" vertex="1" parent="nHt42p3JpCVHXGXA-LoF-103">
          <mxGeometry x="45" y="210" width="10" height="40" as="geometry" />
        </mxCell>
        <mxCell id="nHt42p3JpCVHXGXA-LoF-105" value="" style="html=1;points=[[0,0,0,0,5],[0,1,0,0,-5],[1,0,0,0,5],[1,1,0,0,-5]];perimeter=orthogonalPerimeter;outlineConnect=0;targetShapes=umlLifeline;portConstraint=eastwest;newEdgeStyle={&quot;curved&quot;:0,&quot;rounded&quot;:0};" vertex="1" parent="nHt42p3JpCVHXGXA-LoF-103">
          <mxGeometry x="45" y="400" width="10" height="410" as="geometry" />
        </mxCell>
        <mxCell id="nHt42p3JpCVHXGXA-LoF-106" value="" style="html=1;points=[[0,0,0,0,5],[0,1,0,0,-5],[1,0,0,0,5],[1,1,0,0,-5]];perimeter=orthogonalPerimeter;outlineConnect=0;targetShapes=umlLifeline;portConstraint=eastwest;newEdgeStyle={&quot;curved&quot;:0,&quot;rounded&quot;:0};" vertex="1" parent="nHt42p3JpCVHXGXA-LoF-103">
          <mxGeometry x="45" y="938" width="10" height="392" as="geometry" />
        </mxCell>
        <mxCell id="nHt42p3JpCVHXGXA-LoF-107" value="Система: Bash" style="shape=umlLifeline;perimeter=lifelinePerimeter;whiteSpace=wrap;html=1;container=1;dropTarget=0;collapsible=0;recursiveResize=0;outlineConnect=0;portConstraint=eastwest;newEdgeStyle={&quot;curved&quot;:0,&quot;rounded&quot;:0};" vertex="1" parent="1">
          <mxGeometry x="3560" y="61" width="100" height="1398" as="geometry" />
        </mxCell>
        <mxCell id="nHt42p3JpCVHXGXA-LoF-108" value=":Файл" style="shape=umlLifeline;perimeter=lifelinePerimeter;whiteSpace=wrap;html=1;container=1;dropTarget=0;collapsible=0;recursiveResize=0;outlineConnect=0;portConstraint=eastwest;newEdgeStyle={&quot;curved&quot;:0,&quot;rounded&quot;:0};labelBackgroundColor=none;" vertex="1" parent="1">
          <mxGeometry x="4370" y="61" width="100" height="1398" as="geometry" />
        </mxCell>
        <mxCell id="nHt42p3JpCVHXGXA-LoF-109" value="" style="html=1;points=[[0,0,0,0,5],[0,1,0,0,-5],[1,0,0,0,5],[1,1,0,0,-5]];perimeter=orthogonalPerimeter;outlineConnect=0;targetShapes=umlLifeline;portConstraint=eastwest;newEdgeStyle={&quot;curved&quot;:0,&quot;rounded&quot;:0};" vertex="1" parent="nHt42p3JpCVHXGXA-LoF-108">
          <mxGeometry x="45" y="318" width="10" height="51" as="geometry" />
        </mxCell>
        <mxCell id="nHt42p3JpCVHXGXA-LoF-110" value="loop" style="shape=umlFrame;whiteSpace=wrap;html=1;pointerEvents=0;width=40;height=22;labelBackgroundColor=none;" vertex="1" parent="1">
          <mxGeometry x="3580" y="339" width="890" height="580" as="geometry" />
        </mxCell>
        <mxCell id="nHt42p3JpCVHXGXA-LoF-111" value="[обработаны не все файлы из аргументов]" style="text;html=1;align=center;verticalAlign=middle;resizable=0;points=[];autosize=1;strokeColor=none;fillColor=none;labelBackgroundColor=default;" vertex="1" parent="1">
          <mxGeometry x="3620" y="339" width="260" height="30" as="geometry" />
        </mxCell>
        <mxCell id="nHt42p3JpCVHXGXA-LoF-112" value="[не указаны аргументы]" style="text;html=1;align=center;verticalAlign=middle;resizable=0;points=[];autosize=1;strokeColor=none;fillColor=none;labelBackgroundColor=default;" vertex="1" parent="1">
          <mxGeometry x="3570" y="929" width="150" height="30" as="geometry" />
        </mxCell>
        <mxCell id="nHt42p3JpCVHXGXA-LoF-113" value="[ввод данных]" style="html=1;verticalAlign=bottom;endArrow=block;curved=0;rounded=0;labelBackgroundColor=none;fontColor=default;" edge="1" parent="1">
          <mxGeometry x="-0.2157" y="1" relative="1" as="geometry">
            <mxPoint x="3608.8333333333335" y="978.5" as="sourcePoint" />
            <mxPoint x="3790" y="978.5" as="targetPoint" />
            <mxPoint as="offset" />
          </mxGeometry>
        </mxCell>
        <mxCell id="nHt42p3JpCVHXGXA-LoF-114" value=":Variables" style="shape=umlLifeline;perimeter=lifelinePerimeter;whiteSpace=wrap;html=1;container=1;dropTarget=0;collapsible=0;recursiveResize=0;outlineConnect=0;portConstraint=eastwest;newEdgeStyle={&quot;edgeStyle&quot;:&quot;elbowEdgeStyle&quot;,&quot;elbow&quot;:&quot;vertical&quot;,&quot;curved&quot;:0,&quot;rounded&quot;:0};labelBackgroundColor=none;" vertex="1" parent="1">
          <mxGeometry x="4200" y="61" width="100" height="1398" as="geometry" />
        </mxCell>
        <mxCell id="nHt42p3JpCVHXGXA-LoF-115" value="" style="html=1;points=[[0,0,0,0,5],[0,1,0,0,-5],[1,0,0,0,5],[1,1,0,0,-5]];perimeter=orthogonalPerimeter;outlineConnect=0;targetShapes=umlLifeline;portConstraint=eastwest;newEdgeStyle={&quot;curved&quot;:0,&quot;rounded&quot;:0};labelBackgroundColor=none;" vertex="1" parent="nHt42p3JpCVHXGXA-LoF-114">
          <mxGeometry x="45" y="163" width="10" height="57" as="geometry" />
        </mxCell>
        <mxCell id="nHt42p3JpCVHXGXA-LoF-116" value="&lt;span style=&quot;color: rgb(26, 26, 26); text-align: left;&quot;&gt;привести&amp;nbsp;&lt;/span&gt;&lt;span style=&quot;color: rgb(26, 26, 26); text-align: left;&quot;&gt;аргументы&amp;nbsp;&lt;/span&gt;&lt;span style=&quot;color: rgb(26, 26, 26); text-align: left;&quot;&gt;к строке&lt;/span&gt;" style="html=1;verticalAlign=bottom;endArrow=block;curved=0;rounded=0;fontColor=default;labelBackgroundColor=default;" edge="1" parent="1" target="nHt42p3JpCVHXGXA-LoF-115">
          <mxGeometry relative="1" as="geometry">
            <mxPoint x="3800" y="233" as="sourcePoint" />
            <mxPoint x="4395" y="230" as="targetPoint" />
            <Array as="points">
              <mxPoint x="4000" y="233" />
            </Array>
          </mxGeometry>
        </mxCell>
        <mxCell id="nHt42p3JpCVHXGXA-LoF-117" value="строка из аргументов" style="html=1;verticalAlign=bottom;endArrow=open;dashed=1;endSize=8;curved=0;rounded=0;fontColor=default;labelBackgroundColor=none;exitX=0;exitY=1;exitDx=0;exitDy=-5;exitPerimeter=0;" edge="1" parent="1" source="nHt42p3JpCVHXGXA-LoF-115" target="nHt42p3JpCVHXGXA-LoF-104">
          <mxGeometry relative="1" as="geometry">
            <mxPoint x="4065" y="289" as="targetPoint" />
            <mxPoint x="4395" y="276" as="sourcePoint" />
          </mxGeometry>
        </mxCell>
        <mxCell id="nHt42p3JpCVHXGXA-LoF-118" value="alt" style="shape=umlFrame;whiteSpace=wrap;html=1;pointerEvents=0;width=40;height=22;labelBackgroundColor=none;" vertex="1" parent="1">
          <mxGeometry x="3565" y="190" width="935" height="739" as="geometry" />
        </mxCell>
        <mxCell id="nHt42p3JpCVHXGXA-LoF-119" value="[указаны аргументы]" style="text;html=1;align=center;verticalAlign=middle;resizable=0;points=[];autosize=1;strokeColor=none;fillColor=none;labelBackgroundColor=default;" vertex="1" parent="1">
          <mxGeometry x="3600" y="190" width="140" height="30" as="geometry" />
        </mxCell>
        <mxCell id="nHt42p3JpCVHXGXA-LoF-120" value="строка из аргументов" style="html=1;verticalAlign=bottom;endArrow=open;dashed=1;endSize=8;curved=0;rounded=0;fontColor=default;labelBackgroundColor=none;" edge="1" parent="1">
          <mxGeometry relative="1" as="geometry">
            <mxPoint x="3800" y="300" as="targetPoint" />
            <mxPoint x="4055" y="300" as="sourcePoint" />
          </mxGeometry>
        </mxCell>
        <mxCell id="nHt42p3JpCVHXGXA-LoF-121" value="открыть файл для чтения" style="html=1;verticalAlign=bottom;endArrow=block;curved=0;rounded=0;entryX=0;entryY=0;entryDx=0;entryDy=5;" edge="1" parent="1" source="nHt42p3JpCVHXGXA-LoF-100" target="nHt42p3JpCVHXGXA-LoF-109">
          <mxGeometry relative="1" as="geometry">
            <mxPoint x="3799.9999999999995" y="429.49999999999955" as="sourcePoint" />
          </mxGeometry>
        </mxCell>
        <mxCell id="nHt42p3JpCVHXGXA-LoF-122" value="содержимое файла" style="html=1;verticalAlign=bottom;endArrow=open;dashed=1;endSize=8;curved=0;rounded=0;exitX=0;exitY=1;exitDx=0;exitDy=-5;" edge="1" parent="1" source="nHt42p3JpCVHXGXA-LoF-109" target="nHt42p3JpCVHXGXA-LoF-100">
          <mxGeometry relative="1" as="geometry">
            <mxPoint x="3799.9999999999995" y="470.49999999999955" as="targetPoint" />
          </mxGeometry>
        </mxCell>
        <mxCell id="nHt42p3JpCVHXGXA-LoF-123" value="результирующая строка" style="html=1;verticalAlign=bottom;endArrow=open;dashed=1;endSize=8;curved=0;rounded=0;exitX=0;exitY=1;exitDx=0;exitDy=-5;" edge="1" parent="1" source="nHt42p3JpCVHXGXA-LoF-105" target="nHt42p3JpCVHXGXA-LoF-100">
          <mxGeometry relative="1" as="geometry">
            <mxPoint x="3985" y="419.5" as="targetPoint" />
          </mxGeometry>
        </mxCell>
        <mxCell id="nHt42p3JpCVHXGXA-LoF-124" value="создать результирующую строку" style="html=1;verticalAlign=bottom;endArrow=block;curved=0;rounded=0;entryX=0;entryY=0;entryDx=0;entryDy=5;" edge="1" parent="1" source="nHt42p3JpCVHXGXA-LoF-100" target="nHt42p3JpCVHXGXA-LoF-105">
          <mxGeometry relative="1" as="geometry">
            <mxPoint x="3985" y="349.5" as="sourcePoint" />
          </mxGeometry>
        </mxCell>
        <mxCell id="nHt42p3JpCVHXGXA-LoF-125" value="[опция -l]" style="text;html=1;align=center;verticalAlign=middle;resizable=0;points=[];autosize=1;strokeColor=none;fillColor=none;labelBackgroundColor=none;" vertex="1" parent="1">
          <mxGeometry x="3700" y="1230" width="70" height="30" as="geometry" />
        </mxCell>
        <mxCell id="nHt42p3JpCVHXGXA-LoF-126" value="[не указаны опции]" style="text;html=1;align=center;verticalAlign=middle;resizable=0;points=[];autosize=1;strokeColor=none;fillColor=none;labelBackgroundColor=default;" vertex="1" parent="1">
          <mxGeometry x="3695" y="1019" width="130" height="30" as="geometry" />
        </mxCell>
        <mxCell id="nHt42p3JpCVHXGXA-LoF-127" value="opt" style="shape=umlFrame;whiteSpace=wrap;html=1;pointerEvents=0;width=40;height=22;labelBackgroundColor=none;" vertex="1" parent="1">
          <mxGeometry x="3665" y="1019" width="430" height="60" as="geometry" />
        </mxCell>
        <mxCell id="nHt42p3JpCVHXGXA-LoF-128" value="opt" style="shape=umlFrame;whiteSpace=wrap;html=1;pointerEvents=0;width=40;height=22;labelBackgroundColor=none;" vertex="1" parent="1">
          <mxGeometry x="3665" y="1229" width="430" height="60" as="geometry" />
        </mxCell>
        <mxCell id="nHt42p3JpCVHXGXA-LoF-129" value="[опция -w]" style="text;html=1;align=center;verticalAlign=middle;resizable=0;points=[];autosize=1;strokeColor=none;fillColor=none;labelBackgroundColor=none;" vertex="1" parent="1">
          <mxGeometry x="3695" y="1300" width="80" height="30" as="geometry" />
        </mxCell>
        <mxCell id="nHt42p3JpCVHXGXA-LoF-130" value="opt" style="shape=umlFrame;whiteSpace=wrap;html=1;pointerEvents=0;width=40;height=22;labelBackgroundColor=none;" vertex="1" parent="1">
          <mxGeometry x="3665" y="1299" width="430" height="60" as="geometry" />
        </mxCell>
        <mxCell id="nHt42p3JpCVHXGXA-LoF-131" value="[опция -с]" style="text;html=1;align=center;verticalAlign=middle;resizable=0;points=[];autosize=1;strokeColor=none;fillColor=none;labelBackgroundColor=none;" vertex="1" parent="1">
          <mxGeometry x="3695" y="1092" width="80" height="30" as="geometry" />
        </mxCell>
        <mxCell id="nHt42p3JpCVHXGXA-LoF-132" value="opt" style="shape=umlFrame;whiteSpace=wrap;html=1;pointerEvents=0;width=40;height=22;labelBackgroundColor=none;" vertex="1" parent="1">
          <mxGeometry x="3665" y="1091" width="430" height="60" as="geometry" />
        </mxCell>
        <mxCell id="nHt42p3JpCVHXGXA-LoF-133" value="[опция -m]" style="text;html=1;align=center;verticalAlign=middle;resizable=0;points=[];autosize=1;strokeColor=none;fillColor=none;labelBackgroundColor=none;" vertex="1" parent="1">
          <mxGeometry x="3695" y="1162" width="80" height="30" as="geometry" />
        </mxCell>
        <mxCell id="nHt42p3JpCVHXGXA-LoF-134" value="opt" style="shape=umlFrame;whiteSpace=wrap;html=1;pointerEvents=0;width=40;height=22;labelBackgroundColor=none;" vertex="1" parent="1">
          <mxGeometry x="3665" y="1161" width="430" height="60" as="geometry" />
        </mxCell>
        <mxCell id="nHt42p3JpCVHXGXA-LoF-135" value="[опция -l]" style="text;html=1;align=center;verticalAlign=middle;resizable=0;points=[];autosize=1;strokeColor=none;fillColor=none;labelBackgroundColor=none;" vertex="1" parent="1">
          <mxGeometry x="3700" y="700" width="70" height="30" as="geometry" />
        </mxCell>
        <mxCell id="nHt42p3JpCVHXGXA-LoF-136" value="[не указаны опции]" style="text;html=1;align=center;verticalAlign=middle;resizable=0;points=[];autosize=1;strokeColor=none;fillColor=none;labelBackgroundColor=default;" vertex="1" parent="1">
          <mxGeometry x="3695" y="489" width="130" height="30" as="geometry" />
        </mxCell>
        <mxCell id="nHt42p3JpCVHXGXA-LoF-137" value="opt" style="shape=umlFrame;whiteSpace=wrap;html=1;pointerEvents=0;width=40;height=22;labelBackgroundColor=none;" vertex="1" parent="1">
          <mxGeometry x="3665" y="489" width="430" height="60" as="geometry" />
        </mxCell>
        <mxCell id="nHt42p3JpCVHXGXA-LoF-138" value="opt" style="shape=umlFrame;whiteSpace=wrap;html=1;pointerEvents=0;width=40;height=22;labelBackgroundColor=none;" vertex="1" parent="1">
          <mxGeometry x="3665" y="699" width="430" height="60" as="geometry" />
        </mxCell>
        <mxCell id="nHt42p3JpCVHXGXA-LoF-139" value="[опция -w]" style="text;html=1;align=center;verticalAlign=middle;resizable=0;points=[];autosize=1;strokeColor=none;fillColor=none;labelBackgroundColor=none;" vertex="1" parent="1">
          <mxGeometry x="3695" y="770" width="80" height="30" as="geometry" />
        </mxCell>
        <mxCell id="nHt42p3JpCVHXGXA-LoF-140" value="opt" style="shape=umlFrame;whiteSpace=wrap;html=1;pointerEvents=0;width=40;height=22;labelBackgroundColor=none;" vertex="1" parent="1">
          <mxGeometry x="3665" y="769" width="430" height="60" as="geometry" />
        </mxCell>
        <mxCell id="nHt42p3JpCVHXGXA-LoF-141" value="[опция -с]" style="text;html=1;align=center;verticalAlign=middle;resizable=0;points=[];autosize=1;strokeColor=none;fillColor=none;labelBackgroundColor=none;" vertex="1" parent="1">
          <mxGeometry x="3695" y="562" width="80" height="30" as="geometry" />
        </mxCell>
        <mxCell id="nHt42p3JpCVHXGXA-LoF-142" value="opt" style="shape=umlFrame;whiteSpace=wrap;html=1;pointerEvents=0;width=40;height=22;labelBackgroundColor=none;" vertex="1" parent="1">
          <mxGeometry x="3665" y="561" width="430" height="60" as="geometry" />
        </mxCell>
        <mxCell id="nHt42p3JpCVHXGXA-LoF-143" value="[опция -m]" style="text;html=1;align=center;verticalAlign=middle;resizable=0;points=[];autosize=1;strokeColor=none;fillColor=none;labelBackgroundColor=none;" vertex="1" parent="1">
          <mxGeometry x="3695" y="632" width="80" height="30" as="geometry" />
        </mxCell>
        <mxCell id="nHt42p3JpCVHXGXA-LoF-144" value="opt" style="shape=umlFrame;whiteSpace=wrap;html=1;pointerEvents=0;width=40;height=22;labelBackgroundColor=none;" vertex="1" parent="1">
          <mxGeometry x="3665" y="631" width="430" height="60" as="geometry" />
        </mxCell>
        <mxCell id="nHt42p3JpCVHXGXA-LoF-145" value="создать результирующую строку" style="html=1;verticalAlign=bottom;endArrow=block;curved=0;rounded=0;entryX=0;entryY=0;entryDx=0;entryDy=5;" edge="1" parent="1" source="nHt42p3JpCVHXGXA-LoF-100" target="nHt42p3JpCVHXGXA-LoF-106">
          <mxGeometry relative="1" as="geometry">
            <mxPoint x="3985" y="1034" as="sourcePoint" />
          </mxGeometry>
        </mxCell>
        <mxCell id="nHt42p3JpCVHXGXA-LoF-146" value="результирующая строка" style="html=1;verticalAlign=bottom;endArrow=open;dashed=1;endSize=8;curved=0;rounded=0;exitX=0;exitY=1;exitDx=0;exitDy=-5;" edge="1" parent="1" source="nHt42p3JpCVHXGXA-LoF-106" target="nHt42p3JpCVHXGXA-LoF-100">
          <mxGeometry x="0.0039" relative="1" as="geometry">
            <mxPoint x="3985" y="1104" as="targetPoint" />
            <mxPoint as="offset" />
          </mxGeometry>
        </mxCell>
        <mxCell id="nHt42p3JpCVHXGXA-LoF-147" value="результирующая строка" style="html=1;verticalAlign=bottom;endArrow=open;dashed=1;endSize=8;curved=0;rounded=0;exitX=0;exitY=1;exitDx=0;exitDy=-5;exitPerimeter=0;" edge="1" parent="1" source="nHt42p3JpCVHXGXA-LoF-100" target="nHt42p3JpCVHXGXA-LoF-107">
          <mxGeometry x="0.0039" relative="1" as="geometry">
            <mxPoint x="3810" y="1396" as="targetPoint" />
            <mxPoint x="4065" y="1396" as="sourcePoint" />
            <mxPoint as="offset" />
          </mxGeometry>
        </mxCell>
        <mxCell id="nHt42p3JpCVHXGXA-LoF-148" value="" style="rounded=0;whiteSpace=wrap;html=1;fillColor=none;labelBackgroundColor=none;" vertex="1" parent="1">
          <mxGeometry x="2565" y="550" width="935" height="100" as="geometry" />
        </mxCell>
        <mxCell id="nHt42p3JpCVHXGXA-LoF-149" value="" style="rounded=0;whiteSpace=wrap;html=1;fillColor=none;labelBackgroundColor=none;" vertex="1" parent="1">
          <mxGeometry x="3565" y="929" width="935" height="500" as="geometry" />
        </mxCell>
        <mxCell id="nHt42p3JpCVHXGXA-LoF-150" value="input" style="shape=umlFrame;whiteSpace=wrap;html=1;pointerEvents=0;" vertex="1" parent="1">
          <mxGeometry x="4560" y="10" width="1410" height="1610" as="geometry" />
        </mxCell>
        <mxCell id="nHt42p3JpCVHXGXA-LoF-151" value="" style="shape=umlLifeline;perimeter=lifelinePerimeter;whiteSpace=wrap;html=1;container=1;dropTarget=0;collapsible=0;recursiveResize=0;outlineConnect=0;portConstraint=eastwest;newEdgeStyle={&quot;curved&quot;:0,&quot;rounded&quot;:0};participant=umlActor;" vertex="1" parent="1">
          <mxGeometry x="4720" y="55" width="20" height="1500" as="geometry" />
        </mxCell>
        <mxCell id="nHt42p3JpCVHXGXA-LoF-152" value="Система: Bash" style="shape=umlLifeline;perimeter=lifelinePerimeter;whiteSpace=wrap;html=1;container=1;dropTarget=0;collapsible=0;recursiveResize=0;outlineConnect=0;portConstraint=eastwest;newEdgeStyle={&quot;curved&quot;:0,&quot;rounded&quot;:0};" vertex="1" parent="1">
          <mxGeometry x="4820" y="55" width="100" height="1495" as="geometry" />
        </mxCell>
        <mxCell id="nHt42p3JpCVHXGXA-LoF-153" value="" style="html=1;points=[[0,0,0,0,5],[0,1,0,0,-5],[1,0,0,0,5],[1,1,0,0,-5]];perimeter=orthogonalPerimeter;outlineConnect=0;targetShapes=umlLifeline;portConstraint=eastwest;newEdgeStyle={&quot;curved&quot;:0,&quot;rounded&quot;:0};" vertex="1" parent="nHt42p3JpCVHXGXA-LoF-152">
          <mxGeometry x="45" y="85" width="10" height="785" as="geometry" />
        </mxCell>
        <mxCell id="nHt42p3JpCVHXGXA-LoF-154" value="команда (строка)" style="html=1;verticalAlign=bottom;endArrow=block;curved=0;rounded=0;entryX=0;entryY=0;entryDx=0;entryDy=5;" edge="1" parent="1" source="nHt42p3JpCVHXGXA-LoF-151" target="nHt42p3JpCVHXGXA-LoF-153">
          <mxGeometry relative="1" as="geometry">
            <mxPoint x="4795" y="125" as="sourcePoint" />
          </mxGeometry>
        </mxCell>
        <mxCell id="nHt42p3JpCVHXGXA-LoF-155" value="результат команды" style="html=1;verticalAlign=bottom;endArrow=open;dashed=1;endSize=8;curved=0;rounded=0;exitX=0;exitY=1;exitDx=0;exitDy=-5;" edge="1" parent="1" source="nHt42p3JpCVHXGXA-LoF-153" target="nHt42p3JpCVHXGXA-LoF-151">
          <mxGeometry relative="1" as="geometry">
            <mxPoint x="4795" y="195" as="targetPoint" />
          </mxGeometry>
        </mxCell>
        <mxCell id="nHt42p3JpCVHXGXA-LoF-156" value=":Lexer" style="shape=umlLifeline;perimeter=lifelinePerimeter;whiteSpace=wrap;html=1;container=1;dropTarget=0;collapsible=0;recursiveResize=0;outlineConnect=0;portConstraint=eastwest;newEdgeStyle={&quot;curved&quot;:0,&quot;rounded&quot;:0};" vertex="1" parent="1">
          <mxGeometry x="5020" y="54" width="100" height="1495" as="geometry" />
        </mxCell>
        <mxCell id="nHt42p3JpCVHXGXA-LoF-157" value="" style="html=1;points=[[0,0,0,0,5],[0,1,0,0,-5],[1,0,0,0,5],[1,1,0,0,-5]];perimeter=orthogonalPerimeter;outlineConnect=0;targetShapes=umlLifeline;portConstraint=eastwest;newEdgeStyle={&quot;curved&quot;:0,&quot;rounded&quot;:0};" vertex="1" parent="nHt42p3JpCVHXGXA-LoF-156">
          <mxGeometry x="45" y="115" width="10" height="725" as="geometry" />
        </mxCell>
        <mxCell id="nHt42p3JpCVHXGXA-LoF-158" value=":Parser" style="shape=umlLifeline;perimeter=lifelinePerimeter;whiteSpace=wrap;html=1;container=1;dropTarget=0;collapsible=0;recursiveResize=0;outlineConnect=0;portConstraint=eastwest;newEdgeStyle={&quot;curved&quot;:0,&quot;rounded&quot;:0};" vertex="1" parent="1">
          <mxGeometry x="5190" y="55" width="100" height="1495" as="geometry" />
        </mxCell>
        <mxCell id="nHt42p3JpCVHXGXA-LoF-159" value="" style="html=1;points=[[0,0,0,0,5],[0,1,0,0,-5],[1,0,0,0,5],[1,1,0,0,-5]];perimeter=orthogonalPerimeter;outlineConnect=0;targetShapes=umlLifeline;portConstraint=eastwest;newEdgeStyle={&quot;curved&quot;:0,&quot;rounded&quot;:0};" vertex="1" parent="nHt42p3JpCVHXGXA-LoF-158">
          <mxGeometry x="45" y="129.5" width="10" height="680.5" as="geometry" />
        </mxCell>
        <mxCell id="nHt42p3JpCVHXGXA-LoF-160" value="команда (строка)" style="html=1;verticalAlign=bottom;endArrow=block;curved=0;rounded=0;entryX=0;entryY=0;entryDx=0;entryDy=5;" edge="1" parent="1" source="nHt42p3JpCVHXGXA-LoF-153" target="nHt42p3JpCVHXGXA-LoF-157">
          <mxGeometry relative="1" as="geometry">
            <mxPoint x="4995" y="196" as="sourcePoint" />
          </mxGeometry>
        </mxCell>
        <mxCell id="nHt42p3JpCVHXGXA-LoF-161" value="результат команды" style="html=1;verticalAlign=bottom;endArrow=open;dashed=1;endSize=8;curved=0;rounded=0;exitX=0;exitY=1;exitDx=0;exitDy=-5;" edge="1" parent="1" source="nHt42p3JpCVHXGXA-LoF-157" target="nHt42p3JpCVHXGXA-LoF-153">
          <mxGeometry relative="1" as="geometry">
            <mxPoint x="4995" y="266" as="targetPoint" />
          </mxGeometry>
        </mxCell>
        <mxCell id="nHt42p3JpCVHXGXA-LoF-162" value="последовательность токенов" style="html=1;verticalAlign=bottom;endArrow=block;curved=0;rounded=0;entryX=0;entryY=0;entryDx=0;entryDy=5;" edge="1" parent="1" source="nHt42p3JpCVHXGXA-LoF-157" target="nHt42p3JpCVHXGXA-LoF-159">
          <mxGeometry relative="1" as="geometry">
            <mxPoint x="5190" y="286" as="sourcePoint" />
          </mxGeometry>
        </mxCell>
        <mxCell id="nHt42p3JpCVHXGXA-LoF-163" value="результат команды" style="html=1;verticalAlign=bottom;endArrow=open;dashed=1;endSize=8;curved=0;rounded=0;exitX=0;exitY=1;exitDx=0;exitDy=-5;" edge="1" parent="1" source="nHt42p3JpCVHXGXA-LoF-159" target="nHt42p3JpCVHXGXA-LoF-157">
          <mxGeometry relative="1" as="geometry">
            <mxPoint x="5190" y="356" as="targetPoint" />
          </mxGeometry>
        </mxCell>
        <mxCell id="nHt42p3JpCVHXGXA-LoF-164" value=":Interpreter" style="shape=umlLifeline;perimeter=lifelinePerimeter;whiteSpace=wrap;html=1;container=1;dropTarget=0;collapsible=0;recursiveResize=0;outlineConnect=0;portConstraint=eastwest;newEdgeStyle={&quot;curved&quot;:0,&quot;rounded&quot;:0};" vertex="1" parent="1">
          <mxGeometry x="5340" y="55" width="100" height="1495" as="geometry" />
        </mxCell>
        <mxCell id="nHt42p3JpCVHXGXA-LoF-165" value="" style="html=1;points=[[0,0,0,0,5],[0,1,0,0,-5],[1,0,0,0,5],[1,1,0,0,-5]];perimeter=orthogonalPerimeter;outlineConnect=0;targetShapes=umlLifeline;portConstraint=eastwest;newEdgeStyle={&quot;curved&quot;:0,&quot;rounded&quot;:0};" vertex="1" parent="nHt42p3JpCVHXGXA-LoF-164">
          <mxGeometry x="45" y="149.75" width="10" height="630.25" as="geometry" />
        </mxCell>
        <mxCell id="nHt42p3JpCVHXGXA-LoF-166" value="AST" style="html=1;verticalAlign=bottom;endArrow=block;curved=0;rounded=0;entryX=0;entryY=0;entryDx=0;entryDy=5;" edge="1" parent="1" source="nHt42p3JpCVHXGXA-LoF-159" target="nHt42p3JpCVHXGXA-LoF-165">
          <mxGeometry relative="1" as="geometry">
            <mxPoint x="5315" y="185" as="sourcePoint" />
          </mxGeometry>
        </mxCell>
        <mxCell id="nHt42p3JpCVHXGXA-LoF-167" value="return" style="html=1;verticalAlign=bottom;endArrow=open;dashed=1;endSize=8;curved=0;rounded=0;exitX=0;exitY=1;exitDx=0;exitDy=-5;" edge="1" parent="1" source="nHt42p3JpCVHXGXA-LoF-165" target="nHt42p3JpCVHXGXA-LoF-159">
          <mxGeometry relative="1" as="geometry">
            <mxPoint x="5315" y="255" as="targetPoint" />
          </mxGeometry>
        </mxCell>
        <mxCell id="nHt42p3JpCVHXGXA-LoF-168" value="loop" style="shape=umlFrame;whiteSpace=wrap;html=1;pointerEvents=0;" vertex="1" parent="1">
          <mxGeometry x="5300" y="244.5" width="670" height="521" as="geometry" />
        </mxCell>
        <mxCell id="nHt42p3JpCVHXGXA-LoF-169" value="[дочерние узлы не закончились]" style="text;html=1;align=center;verticalAlign=middle;resizable=0;points=[];autosize=1;strokeColor=none;fillColor=none;labelBackgroundColor=default;" vertex="1" parent="1">
          <mxGeometry x="5360" y="244.5" width="200" height="30" as="geometry" />
        </mxCell>
        <mxCell id="nHt42p3JpCVHXGXA-LoF-170" value="alt" style="shape=umlFrame;whiteSpace=wrap;html=1;pointerEvents=0;" vertex="1" parent="1">
          <mxGeometry x="5320" y="283.5" width="630" height="126.5" as="geometry" />
        </mxCell>
        <mxCell id="nHt42p3JpCVHXGXA-LoF-171" value="" style="rounded=0;whiteSpace=wrap;html=1;fillColor=none;" vertex="1" parent="1">
          <mxGeometry x="5320" y="410" width="630" height="218" as="geometry" />
        </mxCell>
        <mxCell id="nHt42p3JpCVHXGXA-LoF-172" value="[текущий узел - команда]" style="text;html=1;align=center;verticalAlign=middle;resizable=0;points=[];autosize=1;strokeColor=none;fillColor=none;labelBackgroundColor=default;" vertex="1" parent="1">
          <mxGeometry x="5380" y="283.5" width="160" height="30" as="geometry" />
        </mxCell>
        <mxCell id="nHt42p3JpCVHXGXA-LoF-173" value="[текущий узел - пайп]" style="text;html=1;align=center;verticalAlign=middle;resizable=0;points=[];autosize=1;strokeColor=none;fillColor=none;labelBackgroundColor=default;" vertex="1" parent="1">
          <mxGeometry x="5320" y="485.5" width="140" height="30" as="geometry" />
        </mxCell>
        <mxCell id="nHt42p3JpCVHXGXA-LoF-174" value="" style="html=1;points=[[0,0,0,0,5],[0,1,0,0,-5],[1,0,0,0,5],[1,1,0,0,-5]];perimeter=orthogonalPerimeter;outlineConnect=0;targetShapes=umlLifeline;portConstraint=eastwest;newEdgeStyle={&quot;curved&quot;:0,&quot;rounded&quot;:0};" vertex="1" parent="1">
          <mxGeometry x="5390" y="350" width="10" height="40" as="geometry" />
        </mxCell>
        <mxCell id="nHt42p3JpCVHXGXA-LoF-175" value="выполнить команду" style="html=1;align=left;spacingLeft=2;endArrow=block;rounded=0;edgeStyle=orthogonalEdgeStyle;curved=0;rounded=0;" edge="1" parent="1" target="nHt42p3JpCVHXGXA-LoF-174">
          <mxGeometry relative="1" as="geometry">
            <mxPoint x="5395" y="330" as="sourcePoint" />
            <Array as="points">
              <mxPoint x="5425" y="360" />
            </Array>
          </mxGeometry>
        </mxCell>
        <mxCell id="nHt42p3JpCVHXGXA-LoF-176" value="результат выполнения" style="text;html=1;align=center;verticalAlign=middle;resizable=0;points=[];autosize=1;strokeColor=none;fillColor=none;labelBackgroundColor=default;" vertex="1" parent="1">
          <mxGeometry x="5390" y="360" width="150" height="30" as="geometry" />
        </mxCell>
      </root>
    </mxGraphModel>
  </diagram>
</mxfile>
